<?xml version="1.0" encoding="UTF-8"?>
<svg version="1.1" xmlns="http://www.w3.org/2000/svg" width="1024" height="1024">
<path d="M0 0 C0.65403809 0.19335938 1.30807617 0.38671875 1.98193359 0.5859375 C30.81314226 9.30594834 55.51355109 27.23209084 70.15625 53.8515625 C84.79025725 81.4527106 88.15961613 111.53490976 79.23291016 141.53271484 C69.76247324 171.16385541 46.8717672 196.72748348 19.3828125 210.91796875 C8.5105901 216.18683698 -3.08864759 218.79828579 -14.82373047 221.44677734 C-17.02645322 221.92444849 -17.02645322 221.92444849 -19 223 C-18.91566778 234.66557148 -18.8208121 246.33100517 -18.71247292 257.99637985 C-18.66249986 263.41292503 -18.61616981 268.82945061 -18.578125 274.24609375 C-18.54128509 279.47220039 -18.49492848 284.69814346 -18.44193649 289.92411041 C-18.42338569 291.91919336 -18.40828028 293.91431139 -18.39665604 295.90944672 C-18.37980544 298.70119524 -18.35077309 301.49256857 -18.31884766 304.28417969 C-18.31668747 305.11136505 -18.31452728 305.93855042 -18.31230164 306.790802 C-18.26894177 312.21532139 -18.26894177 312.21532139 -16 317 C-14.03794126 318.4805833 -14.03794126 318.4805833 -11.75 319.75 C-4.27804368 324.53109102 -0.6180218 330.59168861 2 339 C2.53550747 341.73957427 2.78318169 344.46758549 3.02734375 347.24609375 C3.09428578 347.9898967 3.16122781 348.73369965 3.23019838 349.50004208 C3.62969911 353.95428437 4.022594 358.40897974 4.40387726 362.86482048 C5.50564159 375.7075228 5.50564159 375.7075228 6.79626417 388.5322336 C11.05432087 428.16308449 10.59356397 467.88676989 10.54119977 507.68983578 C10.53197734 514.89099429 10.53095671 522.092115 10.53526306 529.29327774 C10.53587599 530.32977397 10.53648893 531.3662702 10.53712043 532.43417541 C10.53839962 534.5412662 10.53969648 536.64835699 10.5410108 538.75544776 C10.55231373 558.33296172 10.53945544 577.91039973 10.51780933 597.48790123 C10.49984584 614.25531795 10.50313798 631.02262418 10.52148438 647.79003906 C10.54289971 667.37086076 10.55132181 686.95161713 10.53903532 706.53244889 C10.53776133 708.61887303 10.53650384 710.70529718 10.53526306 712.79172134 C10.53433741 714.33082236 10.53433741 714.33082236 10.53339306 715.90101632 C10.5299497 723.10596176 10.53574437 730.31086534 10.54518127 737.51580429 C10.55640551 746.27513704 10.55334795 755.03432644 10.5320583 763.7936428 C10.52156938 768.25506344 10.51739064 772.7162451 10.53065491 777.1776638 C10.54262305 781.26465223 10.53594451 785.35118118 10.5147447 789.43812825 C10.51029859 790.91127299 10.51249986 792.38445704 10.52224785 793.85757624 C10.60008115 806.6019402 8.46058269 816.82157478 -0.25 826.5 C-9.81546605 835.19587823 -18.82129722 839.70246631 -32.01220703 839.53637695 C-43.74357154 838.97169872 -52.22736851 833.50563767 -60 825 C-73.69782527 807.74983415 -69.16918207 781.40979262 -69.2040199 760.49022806 C-69.21046189 757.10273077 -69.22052186 753.71524782 -69.23058056 750.32775963 C-69.2636944 739.16292821 -69.28540789 727.99808802 -69.30378041 716.83322373 C-69.30859504 713.90937197 -69.31357604 710.98552054 -69.31858563 708.06166911 C-69.34962055 689.77508104 -69.37621559 671.48848937 -69.39300442 653.20188236 C-69.3969519 648.9766292 -69.40095512 644.75137609 -69.4050293 640.52612305 C-69.40603766 639.47636342 -69.40704602 638.4266038 -69.40808494 637.34503328 C-69.4249474 620.49003714 -69.4658961 603.63519158 -69.51705229 586.78026826 C-69.56954627 569.33533555 -69.59804044 551.89047869 -69.6052013 534.44546789 C-69.60977949 524.70863886 -69.62376921 514.97205673 -69.6649456 505.23530769 C-69.83748921 463.04629147 -68.93345843 421.30649213 -65.10278225 379.27130985 C-65.03409186 378.51724768 -64.96540148 377.7631855 -64.89462957 376.98627296 C-64.57391254 373.48786385 -64.24353884 369.99099021 -63.89884531 366.49482667 C-63.27824093 360.04355144 -62.8716231 353.71587513 -63.01566023 347.23326832 C-62.95929033 339.19448879 -58.32662051 329.77871701 -53.07421875 323.8125 C-49.96648564 321.01252299 -47.30111623 319.12823234 -43.41648865 317.47393799 C-41.20456028 316.20226835 -40.19894442 315.56816291 -39.34701729 313.13515472 C-39.09487606 310.70586632 -39.06884968 308.359179 -39.11352539 305.91699219 C-39.09736176 304.54086258 -39.09736176 304.54086258 -39.08087158 303.13693237 C-39.05347393 300.10609727 -39.07536263 297.07771832 -39.09765625 294.046875 C-39.08827382 291.94507298 -39.07581768 289.8432826 -39.06040955 287.74151611 C-39.02813182 282.21091703 -39.03764507 276.68114562 -39.05578613 271.1505127 C-39.0669295 265.50649901 -39.03865472 259.86269895 -39.01367188 254.21875 C-38.97047947 243.1456855 -38.97142372 232.07309554 -39 221 C-40.64718773 220.80417076 -40.64718773 220.80417076 -42.32765198 220.60438538 C-43.78298774 220.42789774 -45.2383039 220.25124838 -46.69360352 220.07446289 C-47.7766766 219.94635098 -47.7766766 219.94635098 -48.88162994 219.81565094 C-54.09496605 219.17775178 -58.9792653 218.20639029 -63.9375 216.4375 C-64.67419922 216.18210449 -65.41089844 215.92670898 -66.16992188 215.66357422 C-78.64392455 211.14373878 -90.09229923 204.85844773 -100 196 C-100.804375 195.32582031 -101.60875 194.65164063 -102.4375 193.95703125 C-119.58531866 179.24741806 -130.85138415 160.6755832 -137 139 C-137.33902344 137.81148437 -137.67804688 136.62296875 -138.02734375 135.3984375 C-144.30126333 108.39456243 -140.89164078 76.6395661 -126.51171875 52.65625 C-124.99600383 50.2580123 -123.4121435 47.94464439 -121.78515625 45.6171875 C-119.86998494 43.06550546 -119.86998494 43.06550546 -119 40 C-117.89882336 38.82999982 -116.78488097 37.67024081 -115.62109375 36.5625 C-114.43976639 35.42387122 -113.28995909 34.25227114 -112.16015625 33.0625 C-83.88495544 3.57625707 -40.25479047 -12.14544535 0 0 Z M-94 45 C-95.15435547 46.13695312 -95.15435547 46.13695312 -96.33203125 47.296875 C-113.31872855 65.00702619 -119.51665002 88.23511758 -119.35351562 112.22143555 C-119.17762284 120.16487926 -118.35674099 127.37358615 -116 135 C-115.45472656 136.76537109 -115.45472656 136.76537109 -114.8984375 138.56640625 C-108.27683067 158.36714667 -95.30749139 176.41403559 -77 187 C-75.73929688 187.75023437 -75.73929688 187.75023437 -74.453125 188.515625 C-53.00561279 200.78905684 -29.9076104 204.08296886 -6 198 C10.84152513 193.22790315 24.77211656 184.39044024 37 172 C37.73863281 171.26007813 38.47726562 170.52015625 39.23828125 169.7578125 C56.55377277 151.40002926 63.59023829 127.36433759 63.20703125 102.65625 C62.4350456 79.54404167 51.31899428 58.87478892 35 43 C26.36301997 35.05496687 16.58716015 27.84745573 5.1328125 24.703125 C3 24 3 24 0.3515625 22.55859375 C-3.93082501 20.56713382 -8.13174085 19.70356051 -12.75 18.8125 C-14.01457031 18.54663086 -14.01457031 18.54663086 -15.3046875 18.27539062 C-43.92468497 12.60828103 -73.84685947 24.88107533 -94 45 Z M-38 339 C-41.38021077 343.38453764 -41.6575006 347.51815522 -42.0625 352.84765625 C-42.13901794 353.72049759 -42.21553589 354.59333893 -42.29437256 355.49263 C-42.54172704 358.34836555 -42.77105721 361.20523453 -43 364.0625 C-43.16721212 366.03801507 -43.33551661 368.01343797 -43.50488281 369.98876953 C-43.84831915 374.0197829 -44.18423073 378.05131517 -44.51367188 382.08349609 C-44.96697855 387.62610801 -45.44171069 393.16669157 -45.921875 398.70703125 C-46.19905744 401.92959044 -46.474851 405.15226661 -46.75 408.375 C-46.81493652 409.13289825 -46.87987305 409.89079651 -46.94677734 410.67166138 C-47.12879566 412.80952845 -47.30720745 414.94766362 -47.484375 417.0859375 C-47.58459961 418.2826709 -47.68482422 419.4794043 -47.78808594 420.71240234 C-47.98727978 423.80266077 -48 426.90332835 -48 430 C-36.45 430 -24.9 430 -13 430 C-13 428.68 -13 427.36 -13 426 C-12.34 426 -11.68 426 -11 426 C-11.63388783 417.97573767 -12.26848125 409.95153158 -12.90394497 401.92739391 C-13.1990788 398.20040193 -13.49398079 394.47339192 -13.78833008 390.74633789 C-14.07305834 387.14121901 -14.35842544 383.53615118 -14.64421272 379.9311161 C-14.75246416 378.56421984 -14.86049567 377.19730613 -14.96829033 375.83037376 C-15.3056845 371.55303794 -15.65092118 367.2763966 -16 363 C-16.08621613 361.90015778 -16.17243225 360.80031555 -16.26126099 359.66714478 C-16.34399261 358.66621796 -16.42672424 357.66529114 -16.51196289 356.6340332 C-16.61765343 355.32110039 -16.61765343 355.32110039 -16.72547913 353.98164368 C-16.79657417 352.00229662 -16.79657417 352.00229662 -18 351 C-17.938125 349.948125 -17.87625 348.89625 -17.8125 347.8125 C-18.03879542 343.21115986 -18.91862867 341.39740941 -22 338 C-27.57811794 335.26562846 -32.73151527 335.82461482 -38 339 Z M-48 451 C-48.0903896 496.12275437 -48.16201904 541.24548705 -48.20426132 586.36831398 C-48.20926426 591.69313395 -48.21444154 597.01795374 -48.21972656 602.34277344 C-48.2207758 603.40286782 -48.22182505 604.4629622 -48.22290608 605.55518065 C-48.2403205 622.72948318 -48.2718639 639.90373226 -48.30861118 657.07800306 C-48.34599175 674.69492202 -48.36822975 692.31181295 -48.37635398 709.92876995 C-48.38184774 720.80304005 -48.39921133 731.67715909 -48.43166587 742.55138271 C-48.45277815 750.00402787 -48.4592075 757.45659471 -48.45400551 764.90926762 C-48.45143861 769.21178075 -48.45542684 773.51402954 -48.4768219 777.8164959 C-48.49626264 781.75465058 -48.49728636 785.69236272 -48.48359558 789.63053761 C-48.48190308 791.05594666 -48.48699854 792.48138312 -48.49953273 793.90673806 C-48.80109477 803.81885829 -48.80109477 803.81885829 -44 812 C-42.26348767 813.65246547 -42.26348767 813.65246547 -40.4375 814.8125 C-39.56931641 815.40998047 -39.56931641 815.40998047 -38.68359375 816.01953125 C-34.32943373 818.55524857 -29.87930802 818.55324437 -25 818 C-19.39172256 816.35418972 -15.0153602 814.18641954 -12 809 C-10.08069318 803.52412821 -9.74772712 798.77509433 -9.875 793.0625 C-9.88402344 792.28326172 -9.89304687 791.50402344 -9.90234375 790.70117188 C-9.92566309 788.80064553 -9.96152414 786.90027992 -10 785 C-10.33 785 -10.66 785 -11 785 C-11 712.4 -11 639.8 -11 565 C-10.67 565 -10.34 565 -10 565 C-10 527.38 -10 489.76 -10 451 C-22.54 451 -35.08 451 -48 451 Z M-11 566 C-11 568.31 -11 570.62 -11 573 C-10.67 573 -10.34 573 -10 573 C-10 570.69 -10 568.38 -10 566 C-10.33 566 -10.66 566 -11 566 Z M-11 574 C-10 576 -10 576 -10 576 Z M-11 577 C-11 586.24 -11 595.48 -11 605 C-10.67 605 -10.34 605 -10 605 C-10 595.76 -10 586.52 -10 577 C-10.33 577 -10.66 577 -11 577 Z M-11 606 C-11 610.95 -11 615.9 -11 621 C-10.67 621 -10.34 621 -10 621 C-10 616.05 -10 611.1 -10 606 C-10.33 606 -10.66 606 -11 606 Z M-11 624 C-11 636.21 -11 648.42 -11 661 C-10.67 661 -10.34 661 -10 661 C-10 648.79 -10 636.58 -10 624 C-10.33 624 -10.66 624 -11 624 Z M-11 665 C-11 672.59 -11 680.18 -11 688 C-10.67 688 -10.34 688 -10 688 C-10 680.41 -10 672.82 -10 665 C-10.33 665 -10.66 665 -11 665 Z M-11 689 C-11 712.1 -11 735.2 -11 759 C-10.67 759 -10.34 759 -10 759 C-10 735.9 -10 712.8 -10 689 C-10.33 689 -10.66 689 -11 689 Z M-11 761 C-10 765 -10 765 -10 765 Z M-11 766 C-11 769.3 -11 772.6 -11 776 C-10.67 776 -10.34 776 -10 776 C-10 772.7 -10 769.4 -10 766 C-10.33 766 -10.66 766 -11 766 Z M-11 779 C-10 781 -10 781 -10 781 Z " fill="#F3FCFC" transform="translate(415,95)"/>
<path d="M0 0 C1.34576985 0.30267254 2.69171612 0.60456166 4.03782654 0.90571594 C7.57999473 1.70025184 11.11981184 2.5048004 14.65917969 3.31170654 C18.17843048 4.11247201 21.69958391 4.90476363 25.22070312 5.69726562 C29.34455037 6.6256855 33.46822715 7.55480208 37.59072876 8.48918152 C46.71932793 10.55666143 55.8579735 12.57229262 65.01625061 14.50444031 C89.15846897 19.66132288 110.14581638 30.5969587 124.16015625 51.41308594 C131.5331919 62.95666064 137.20389059 76.22522706 136.24609375 90.11328125 C136.90609375 90.44328125 137.56609375 90.77328125 138.24609375 91.11328125 C135.8000422 112.04280299 132.6050639 129.84825312 118.24609375 146.11328125 C117.16908203 147.35078125 117.16908203 147.35078125 116.0703125 148.61328125 C105.35711878 160.13671651 91.22181901 166.74241641 77.41894531 173.85400391 C58.08006736 183.64495557 58.08006736 183.64495557 46.24609375 201.11328125 C44.41822911 207.32577758 43.94232578 212.92749755 43.92724609 219.38476562 C43.91720047 220.38079803 43.90715485 221.37683044 43.89680481 222.40304565 C43.86609648 225.67103538 43.84897202 228.93894364 43.83203125 232.20703125 C43.81330968 234.48246963 43.79373553 236.75790115 43.77334595 239.0333252 C43.72212339 245.00414979 43.68244479 250.97499687 43.64520264 256.94592285 C43.60510104 263.04603594 43.5540368 269.14605629 43.50390625 275.24609375 C43.40726389 287.20175768 43.32282174 299.15747409 43.24609375 311.11328125 C44.41301758 311.31908813 44.41301758 311.31908813 45.60351562 311.52905273 C51.50237788 312.83318959 56.64370607 317.79762619 60.12109375 322.61328125 C65.89166436 333.30964875 66.07523621 347.84719121 67.25912476 359.76829529 C67.34360053 360.60210101 67.42807631 361.43590673 67.51511195 362.29497929 C68.16555098 368.73104228 68.78060995 375.17011622 69.38037109 381.61108398 C69.47045747 382.57536982 69.56054384 383.53965566 69.6533601 384.53316228 C73.49510753 425.93711557 74.36245546 467.06105598 74.13792215 508.61734173 C74.0866335 518.38441461 74.08258574 528.15138901 74.07905154 537.91857594 C74.07143554 555.33380562 74.02742216 572.74872743 73.95947266 590.16381836 C73.89395914 606.9691704 73.85193938 623.77435958 73.83642578 640.57983398 C73.8354548 641.62653867 73.83448382 642.67324336 73.83348341 643.75166637 C73.82962384 647.96226738 73.82579952 652.17286842 73.8220512 656.38346953 C73.80608562 673.57070109 73.77164474 690.75790199 73.73477888 707.94509959 C73.7265228 711.82804788 73.71907353 715.71099644 73.71233416 719.59394765 C73.69448931 729.74108457 73.67080141 739.88814599 73.62920208 750.03521658 C73.61211588 754.21581773 73.59788286 758.396368 73.59217072 762.57700157 C73.58677892 766.41027086 73.57204193 770.24339286 73.55018978 774.07660263 C73.54089285 776.09732631 73.54098039 778.11808669 73.54155314 780.13883168 C73.42219504 796.64689191 72.11853089 810.64233675 60.34765625 823.140625 C51.4895328 831.45540631 41.8352032 833.69634889 29.890625 833.38671875 C19.04510244 832.57301395 10.99392307 827.94441244 3.359375 820.19921875 C-3.45507997 811.85709 -5.3543616 802.05270857 -5.49284363 791.54853821 C-5.52135507 790.4336031 -5.54986651 789.31866799 -5.57924193 788.16994697 C-5.66309594 784.48434082 -5.71330728 780.79960771 -5.75390625 777.11328125 C-5.77676016 775.2175388 -5.77676016 775.2175388 -5.80007577 773.28349853 C-5.89891659 764.0343485 -5.92203847 754.78570193 -5.92860806 745.53608716 C-5.93259 741.40392432 -5.94216078 737.2717731 -5.95082092 733.13961792 C-5.97036608 723.20869653 -5.98062255 713.27777444 -5.98954871 703.34683868 C-5.99307753 699.58159159 -5.997221 695.81634528 -6.00138837 692.05109885 C-6.01983837 675.36552375 -6.03557316 658.67994854 -6.04328632 641.99436474 C-6.04519517 637.93252245 -6.04711566 633.87068016 -6.04907227 629.80883789 C-6.04955601 628.79970006 -6.05003975 627.79056222 -6.05053815 626.75084446 C-6.05880641 610.46998736 -6.0840993 594.18920447 -6.11665294 577.90837964 C-6.15003574 561.07124445 -6.16776277 544.23414657 -6.17093056 527.3969782 C-6.173067 517.99302567 -6.18148901 508.5891824 -6.20739174 499.18526268 C-6.31608287 458.29000036 -5.8400228 417.84668638 -1.75390625 377.11328125 C-2.41390625 376.78328125 -3.07390625 376.45328125 -3.75390625 376.11328125 C-3.09390625 375.78328125 -2.43390625 375.45328125 -1.75390625 375.11328125 C-1.3836408 372.62147925 -1.14128924 370.21869507 -0.97265625 367.7109375 C-0.91364136 366.95920761 -0.85462646 366.20747772 -0.79382324 365.43296814 C-0.60486122 363.01449499 -0.42839701 360.59533844 -0.25390625 358.17578125 C2.05496975 326.78969687 2.05496975 326.78969687 12.24609375 316.11328125 C17.6145148 312.11328125 17.6145148 312.11328125 20.24609375 312.11328125 C20.57609375 311.12328125 20.90609375 310.13328125 21.24609375 309.11328125 C21.24609375 309.77328125 21.24609375 310.43328125 21.24609375 311.11328125 C21.90609375 311.11328125 22.56609375 311.11328125 23.24609375 311.11328125 C23.24240658 310.56258595 23.23871941 310.01189064 23.2349205 309.4445076 C23.14628071 295.99623848 23.08050057 282.54802109 23.03884506 269.09952164 C23.01801973 262.59569621 22.98979419 256.09208251 22.94433594 249.58837891 C22.90069838 243.30544723 22.87691867 237.02271851 22.86658478 230.73964691 C22.85922554 228.34919798 22.84485505 225.95875946 22.82317352 223.56839752 C22.64323566 202.89804159 25.03491148 188.16695508 39.71875 172.5546875 C48.24959886 164.31391388 60.50921515 155.24074067 72.40039062 152.64257812 C73.00947266 152.46791016 73.61855469 152.29324219 74.24609375 152.11328125 C74.57609375 151.45328125 74.90609375 150.79328125 75.24609375 150.11328125 C76.890625 149.32421875 76.890625 149.32421875 79.05859375 148.48828125 C94.49590927 141.85121884 105.83792394 131.08892678 112.3125 115.5546875 C117.72851755 100.03923625 115.75407666 83.54738755 109.05859375 68.73828125 C105.98235652 63.12367648 101.73691415 58.627014 97.24609375 54.11328125 C96.653125 53.48550781 96.06015625 52.85773438 95.44921875 52.2109375 C83.03397471 40.09783436 65.57601536 36.62111024 49.24609375 33.11328125 C48.40904907 32.93325562 47.57200439 32.75322998 46.70959473 32.56774902 C37.6740175 30.62778704 28.63374394 28.71001146 19.59204102 26.79882812 C-3.04913359 22.01151537 -3.04913359 22.01151537 -12.87890625 19.73828125 C-13.84755615 19.52429688 -14.81620605 19.3103125 -15.81420898 19.08984375 C-20.68787677 17.93385473 -24.11967065 16.7767075 -27.75390625 13.11328125 C-29.36237807 9.89633761 -29.36699774 6.59190903 -28.75390625 3.11328125 C-20.93570475 -6.55659955 -10.67401969 -2.45239409 0 0 Z M24.99609375 333.67578125 C19.64486934 341.1292724 20.4305264 353.07917311 19.73828125 362.00390625 C19.60711358 363.63820308 19.47544199 365.27245953 19.34329224 366.90667725 C19.06892796 370.31542109 18.79866484 373.72445485 18.53173828 377.13378906 C18.19003299 381.4975739 17.84104475 385.86073594 17.48937798 390.22372818 C17.15309327 394.4002487 16.82061157 398.57706956 16.48828125 402.75390625 C16.39317072 403.94255657 16.39317072 403.94255657 16.29613876 405.15522003 C16.11703128 407.40182258 15.94065368 409.64862225 15.76513672 411.89550781 C15.66457977 413.17186096 15.56402283 414.44821411 15.4604187 415.76324463 C15.28265367 418.54182626 15.24609375 421.32901899 15.24609375 424.11328125 C27.45609375 424.11328125 39.66609375 424.11328125 52.24609375 424.11328125 C51.69850246 417.74084678 51.14847303 411.36872453 50.59204102 404.99707031 C50.40339868 402.82825217 50.21621909 400.6593063 50.03051758 398.49023438 C49.76375205 395.37725855 49.49177507 392.26477602 49.21875 389.15234375 C49.13641617 388.17834625 49.05408234 387.20434875 48.96925354 386.20083618 C48.88924606 385.30005341 48.80923859 384.39927063 48.72680664 383.47119141 C48.65796768 382.67621246 48.58912872 381.88123352 48.51820374 381.06216431 C48.34122927 379.03752411 48.34122927 379.03752411 47.24609375 377.11328125 C47.05803014 374.13112974 46.91873125 371.16092578 46.80859375 368.17578125 C46.48370533 361.01781882 46.08173063 353.87483951 45.43359375 346.73828125 C45.3756665 345.96105713 45.31773926 345.18383301 45.25805664 344.38305664 C44.76337596 339.34415209 43.58610513 336.10664038 40.24609375 332.11328125 C34.23971222 329.44377835 30.33523617 329.96804346 24.99609375 333.67578125 Z M14.24609375 445.11328125 C14.17827529 489.5480071 14.12456525 533.98272054 14.09289776 578.41748789 C14.08914564 583.66333511 14.08526267 588.90918223 14.08129883 594.1550293 C14.0805119 595.19938367 14.07972497 596.24373805 14.07891419 597.31973953 C14.06586003 614.23010889 14.04220611 631.14044767 14.01463536 648.05079889 C13.98658148 665.40218084 13.96991752 682.75354678 13.96382827 700.10495049 C13.9597118 710.81181714 13.94670984 721.51859732 13.92234435 732.22543735 C13.90648739 739.56736644 13.90169331 746.90925081 13.90558962 754.25119578 C13.90751122 758.48720244 13.90456391 762.72305798 13.88847733 766.95903778 C13.87384704 770.83992577 13.87316159 774.72056142 13.88339707 778.60146118 C13.88466156 780.00269384 13.88088248 781.40394244 13.8714442 782.80514389 C13.72298073 795.23866563 13.72298073 795.23866563 18.89453125 806.234375 C25.60388335 811.34987649 30.73560325 812.96295985 39.24609375 812.11328125 C44.76709977 810.30833697 47.87739928 806.6670539 51.24609375 802.11328125 C57.57551775 789.45443326 53.38095534 766.7476584 53.36215937 752.56463516 C53.35779803 748.42924439 53.35930529 744.29385495 53.36006165 740.15846252 C53.36058331 733.0121873 53.35747405 725.86592127 53.35182381 718.71964836 C53.3436601 708.38762743 53.34108862 698.05561091 53.33983582 687.7235871 C53.33765292 670.95626584 53.33101357 654.18894947 53.3215332 637.42163086 C53.31233932 621.14396184 53.30526817 604.86629415 53.30102539 588.58862305 C53.30076267 587.58348484 53.30049994 586.57834663 53.30022926 585.5427497 C53.29892412 580.49973441 53.29766044 575.45671911 53.29641736 570.4137038 C53.28606848 528.64689272 53.26819373 486.88008763 53.24609375 445.11328125 C40.37609375 445.11328125 27.50609375 445.11328125 14.24609375 445.11328125 Z " fill="#F3FCFC" transform="translate(605.75390625,100.88671875)"/>
<path d="M0 0 C0 0.33 0 0.66 0 1 C-0.93972656 1.19916016 -0.93972656 1.19916016 -1.8984375 1.40234375 C-3.12433594 1.66724609 -3.12433594 1.66724609 -4.375 1.9375 C-5.18710937 2.11152344 -5.99921875 2.28554688 -6.8359375 2.46484375 C-9.029463 2.92330693 -9.029463 2.92330693 -11 4 C-10.89256517 15.68278978 -10.77994531 27.36551687 -10.66066074 39.04819202 C-10.60543919 44.47261829 -10.55202034 49.89704995 -10.50268555 55.3215332 C-10.45503077 60.55406638 -10.40268744 65.78653338 -10.34705925 71.01898766 C-10.32664077 73.01770065 -10.30792684 75.01643179 -10.29092598 77.01517677 C-10.26687086 79.80941976 -10.23681767 82.60353746 -10.20532227 85.39770508 C-10.1995668 86.22848572 -10.19381134 87.05926636 -10.18788147 87.91522217 C-10.14576504 91.19113922 -10.0430296 93.8709112 -9 97 C-10.98 97.495 -10.98 97.495 -13 98 C-13 65.99 -13 33.98 -13 1 C-8.41510669 0.23585111 -4.58535136 -0.09170703 0 0 Z " fill="#E1F2F0" transform="translate(407,314)"/>
<path d="M0 0 C0.33 0 0.66 0 1 0 C1.34029508 3.47852168 1.6709387 6.95789909 2 10.4375 C2.09539062 11.41138672 2.19078125 12.38527344 2.2890625 13.38867188 C2.37929688 14.35224609 2.46953125 15.31582031 2.5625 16.30859375 C2.64628906 17.18314209 2.73007812 18.05769043 2.81640625 18.95874023 C3.05829497 22.96566552 3 26.98578023 3 31 C-9.87 31 -22.74 31 -36 31 C-36 28.69 -36 26.38 -36 24 C-35.67 24 -35.34 24 -35 24 C-35 25.98 -35 27.96 -35 30 C-30.33673618 29.88188019 -25.6736912 29.75764134 -21.01074219 29.62768555 C-19.42387343 29.58432759 -17.83695776 29.54265313 -16.25 29.50268555 C-13.97121021 29.44500368 -11.69265678 29.38130362 -9.4140625 29.31640625 C-8.70255035 29.29969376 -7.99103821 29.28298126 -7.25796509 29.26576233 C-3.50339183 29.20278063 -3.50339183 29.20278063 0 28 C0 27.34 0 26.68 0 26 C0.66 26 1.32 26 2 26 C1.505 24.515 1.505 24.515 1 23 C0.04351298 15.34810384 -0.13644934 7.70180716 0 0 Z " fill="#E0F3F1" transform="translate(402,495)"/>
<path d="M0 0 C0.33 0 0.66 0 1 0 C1.93414941 5.55258409 2.19181988 10.93585269 2.1875 16.5625 C2.18814453 17.43422852 2.18878906 18.30595703 2.18945312 19.20410156 C2.12961799 26.61005931 1.35178953 33.70999217 0 41 C-0.33 41 -0.66 41 -1 41 C-1.20638953 13.05485809 -1.20638953 13.05485809 0 0 Z " fill="#DBEEE9" transform="translate(497,185)"/>
<path d="M0 0 C0.33 0 0.66 0 1 0 C1.33947025 3.49943267 1.67044773 6.99962052 2 10.5 C2.09539062 11.48226563 2.19078125 12.46453125 2.2890625 13.4765625 C2.80588848 19.01398367 3.10592737 24.43881298 3 30 C1.35 29.67 -0.3 29.34 -2 29 C-1.34 28.67 -0.68 28.34 0 28 C0 27.34 0 26.68 0 26 C0.66 26 1.32 26 2 26 C1.67 25.01 1.34 24.02 1 23 C0.04351298 15.34810384 -0.13644934 7.70180716 0 0 Z " fill="#E8F8F6" transform="translate(402,495)"/>
<path d="M0 0 C0.66 0.33 1.32 0.66 2 1 C-0.2246112 3.2246112 -2.44942299 5.44901181 -4.67578125 7.671875 C-5.99109783 8.98940219 -7.30338005 10.3100234 -8.60546875 11.640625 C-10.66086962 13.74029605 -12.53313411 15.35542274 -15 17 C-11.80573668 9.96948907 -6.00185406 4.6843739 0 0 Z " fill="#E2F1EF" transform="translate(654,266)"/>
<path d="M0 0 C0.65625 1.8046875 0.65625 1.8046875 1 4 C-1.17134797 7.65977197 -4.40446757 9.74804397 -8.25 11.375 C-12.87922929 12.14653822 -17.32045073 12.16948066 -22 12 C-22 11.67 -22 11.34 -22 11 C-21.21496094 10.90203125 -20.42992187 10.8040625 -19.62109375 10.703125 C-13.20238736 9.78954225 -8.241966 8.9035917 -3 5 C-1.06305417 2.41796279 -1.06305417 2.41796279 0 0 Z " fill="#E0F1EF" transform="translate(403,902)"/>
<path d="M0 0 C0.66 0.33 1.32 0.66 2 1 C-0.07525252 2.98828384 -2.15936807 4.96550136 -4.25 6.9375 C-5.12978516 7.78344727 -5.12978516 7.78344727 -6.02734375 8.64648438 C-6.60097656 9.18466797 -7.17460937 9.72285156 -7.765625 10.27734375 C-8.28930664 10.77484131 -8.81298828 11.27233887 -9.35253906 11.78491211 C-11.21329621 13.15731702 -12.7427962 13.58589322 -15 14 C-12.11461208 10.13220619 -9.01811193 7.19301785 -5.25 4.1875 C-4.26515625 3.39730469 -3.2803125 2.60710937 -2.265625 1.79296875 C-1.51796875 1.20128906 -0.7703125 0.60960938 0 0 Z " fill="#E0EFEC" transform="translate(321,112)"/>
<path d="M0 0 C0.33 0.66 0.66 1.32 1 2 C-0.07518118 4.44332726 -1.19808566 6.76754523 -2.4375 9.125 C-2.77587891 9.78371094 -3.11425781 10.44242187 -3.46289062 11.12109375 C-4.30149926 12.75106547 -5.14984811 14.37601909 -6 16 C-7 13 -7 13 -5.8203125 10.1171875 C-5.26085937 9.04726563 -4.70140625 7.97734375 -4.125 6.875 C-3.57070313 5.79992187 -3.01640625 4.72484375 -2.4453125 3.6171875 C-1 1 -1 1 0 0 Z " fill="#E5F2EF" transform="translate(638,283)"/>
<path d="M0 0 C0.66 0.33 1.32 0.66 2 1 C-1.63 4.63 -5.26 8.26 -9 12 C-9 7.8407692 -6.75316432 5.85455565 -4 3 C-1.6875 1.125 -1.6875 1.125 0 0 Z " fill="#E0F0ED" transform="translate(368,414)"/>
<path d="M0 0 C0.8125 1.625 0.8125 1.625 1 4 C-0.46818136 6.24609835 -2.15852858 8.02378677 -4 10 C-4 5.75354935 -2.18249194 3.61475228 0 0 Z " fill="#E0EDEA" transform="translate(291,144)"/>
<path d="M0 0 C0.66 0.66 1.32 1.32 2 2 C-0.31 4.31 -2.62 6.62 -5 9 C-5.66 8.67 -6.32 8.34 -7 8 C-4.69 5.36 -2.38 2.72 0 0 Z " fill="#E4F3F0" transform="translate(712,228)"/>
<path d="M0 0 C0.556875 0.226875 1.11375 0.45375 1.6875 0.6875 C-2.74326923 3.76442308 -2.74326923 3.76442308 -5.625 3.375 C-6.4603125 3.0346875 -6.4603125 3.0346875 -7.3125 2.6875 C-2.88173077 -0.38942308 -2.88173077 -0.38942308 0 0 Z " fill="#E9F4F1" transform="translate(703.3125,262.3125)"/>
<path d="M0 0 C0.33 0 0.66 0 1 0 C1.25 2.25 1.25 2.25 1 5 C-1 7.3125 -1 7.3125 -3 9 C-3 5.30581799 -1.71820705 3.22163822 0 0 Z " fill="#E4F3F1" transform="translate(717,219)"/>
<path d="M0 0 C0.33 0 0.66 0 1 0 C1 5.28 1 10.56 1 16 C0.67 16 0.34 16 0 16 C0 10.72 0 5.44 0 0 Z " fill="#EAFAF9" transform="translate(403,577)"/>
<path d="M0 0 C0.33 0 0.66 0 1 0 C1 5.28 1 10.56 1 16 C0.67 16 0.34 16 0 16 C0 10.72 0 5.44 0 0 Z " fill="#EAF9F9" transform="translate(403,560)"/>
<path d="M0 0 C0.33 0 0.66 0 1 0 C1 4.62 1 9.24 1 14 C0.67 14 0.34 14 0 14 C0 9.38 0 4.76 0 0 Z " fill="#EAF9F8" transform="translate(403,644)"/>
<path d="M0 0 C0.33 0 0.66 0 1 0 C1 4.62 1 9.24 1 14 C0.67 14 0.34 14 0 14 C0 9.38 0 4.76 0 0 Z " fill="#EAFAF8" transform="translate(403,629)"/>
<path d="M0 0 C0.33 0 0.66 0 1 0 C1 3.3 1 6.6 1 10 C0.67 10 0.34 10 0 10 C0 6.7 0 3.4 0 0 Z " fill="#EDFCFB" transform="translate(400,494)"/>
<path d="M0 0 C0.33 0 0.66 0 1 0 C1 2.97 1 5.94 1 9 C0.67 9 0.34 9 0 9 C0 6.03 0 3.06 0 0 Z " fill="#EAFAF8" transform="translate(403,615)"/>
<path d="M0 0 C0.66 0 1.32 0 2 0 C2 1.65 2 3.3 2 5 C0 2 0 2 0 0 Z " fill="#EBFBF8" transform="translate(402,547)"/>
<path d="M0 0 C0.33 0 0.66 0 1 0 C1 1.65 1 3.3 1 5 C0.34 3.68 -0.32 2.36 -1 1 C-0.67 0.67 -0.34 0.34 0 0 Z " fill="#E0F2EE" transform="translate(603,466)"/>
<path d="M0 0 C1.65 0 3.3 0 5 0 C5 0.33 5 0.66 5 1 C3.35 1 1.7 1 0 1 C0 0.67 0 0.34 0 0 Z " fill="#CAE3D6" transform="translate(387,935)"/>
<path d="M0 0 C1.65 0 3.3 0 5 0 C5 0.33 5 0.66 5 1 C3.35 1 1.7 1 0 1 C0 0.67 0 0.34 0 0 Z " fill="#CAE2D7" transform="translate(380,935)"/>
<path d="M0 0 C0.33 0 0.66 0 1 0 C1 1.65 1 3.3 1 5 C0.67 5 0.34 5 0 5 C0 3.35 0 1.7 0 0 Z " fill="#E3F5F0" transform="translate(627,395)"/>
<path d="M0 0 C0.33 1.32 0.66 2.64 1 4 C0.34 3.67 -0.32 3.34 -1 3 C-0.67 2.01 -0.34 1.02 0 0 Z " fill="#D4EBE3" transform="translate(740,220)"/>
<path d="M0 0 C0.99 0.495 0.99 0.495 2 1 C1.67 1.99 1.34 2.98 1 4 C0.67 2.68 0.34 1.36 0 0 Z " fill="#D4EAE2" transform="translate(740,172)"/>
<path d="M0 0 C4 1 4 1 4 1 Z " fill="#CCE4D9" transform="translate(635,935)"/>
<path d="M0 0 C1 4 1 4 1 4 Z " fill="#EAFAF9" transform="translate(403,603)"/>
<path d="M0 0 C1 4 1 4 1 4 Z " fill="#DFF1EE" transform="translate(676,492)"/>
<path d="M0 0 C1 4 1 4 1 4 Z " fill="#EDFCFA" transform="translate(653,492)"/>
<path d="M0 0 C1 4 1 4 1 4 Z " fill="#EBFBFA" transform="translate(652,484)"/>
<path d="M0 0 C1 4 1 4 1 4 Z " fill="#E8FAF9" transform="translate(372,476)"/>
<path d="M0 0 C1 4 1 4 1 4 Z " fill="#EAFBF9" transform="translate(651,473)"/>
<path d="M0 0 C1 4 1 4 1 4 Z " fill="#E9FAF8" transform="translate(628,452)"/>
<path d="M0 0 C0.33 0.66 0.66 1.32 1 2 C0.01 1.67 -0.98 1.34 -2 1 C-1.34 0.67 -0.68 0.34 0 0 Z " fill="#E6F7F4" transform="translate(373,409)"/>
<path d="M0 0 C1 4 1 4 1 4 Z " fill="#E6F6F5" transform="translate(476,204)"/>
<path d="M0 0 C1 4 1 4 1 4 Z " fill="#D6EBE5" transform="translate(743,184)"/>
<path d="M0 0 C0.99 0.495 0.99 0.495 2 1 C1.67 1.66 1.34 2.32 1 3 C0.67 2.01 0.34 1.02 0 0 Z " fill="#E5F8F4" transform="translate(466,162)"/>
<path d="M0 0 C4 1 4 1 4 1 Z " fill="#DAEDE8" transform="translate(367,91)"/>
<path d="" fill="#E8F8F6" transform="translate(0,0)"/>
<path d="" fill="#EAFAF8" transform="translate(0,0)"/>
<path d="" fill="#E9FAF8" transform="translate(0,0)"/>
<path d="" fill="#DBF1EB" transform="translate(0,0)"/>
<path d="" fill="#E5F7F4" transform="translate(0,0)"/>
<path d="" fill="#DFF4EF" transform="translate(0,0)"/>
<path d="" fill="#E2F4F0" transform="translate(0,0)"/>
<path d="" fill="#DFF1EF" transform="translate(0,0)"/>
<path d="" fill="#E3F6F1" transform="translate(0,0)"/>
<path d="" fill="#E5F7F2" transform="translate(0,0)"/>
<path d="" fill="#E0F2EE" transform="translate(0,0)"/>
<path d="" fill="#DFF2ED" transform="translate(0,0)"/>
<path d="M0 0 C3 1 3 1 3 1 Z " fill="#E8F9F6" transform="translate(400,317)"/>
<path d="M0 0 C3 1 3 1 3 1 Z " fill="#E8F8F7" transform="translate(403,316)"/>
<path d="" fill="#E5F7F4" transform="translate(0,0)"/>
<path d="" fill="#DBF1EB" transform="translate(0,0)"/>
<path d="M0 0 C0.66 0 1.32 0 2 0 C1.67 0.66 1.34 1.32 1 2 C0.67 1.34 0.34 0.68 0 0 Z " fill="#E7F7F5" transform="translate(464,159)"/>
<path d="M0 0 C0.66 0.66 1.32 1.32 2 2 C1.34 2 0.68 2 0 2 C0 1.34 0 0.68 0 0 Z " fill="#E5F8F3" transform="translate(440,132)"/>
<path d="M0 0 C3 1 3 1 3 1 Z " fill="#E2F4EE" transform="translate(619,127)"/>
<path d="M0 0 C3 1 3 1 3 1 Z " fill="#DCEFEA" transform="translate(600,123)"/>
<path d="M0 0 C3 1 3 1 3 1 Z " fill="#E4F7F4" transform="translate(400,115)"/>
<path d="M0 0 C2 1 2 1 2 1 Z " fill="#CCE3D9" transform="translate(608,923)"/>
<path d="" fill="#CEE4DD" transform="translate(0,0)"/>
<path d="" fill="#D3E9E1" transform="translate(0,0)"/>
<path d="" fill="#CFE6E0" transform="translate(0,0)"/>
<path d="" fill="#DEF1ED" transform="translate(0,0)"/>
<path d="" fill="#DCF1ED" transform="translate(0,0)"/>
<path d="" fill="#E9FAF7" transform="translate(0,0)"/>
<path d="" fill="#EAFAF8" transform="translate(0,0)"/>
<path d="" fill="#EAFBFA" transform="translate(0,0)"/>
<path d="" fill="#EBFAF9" transform="translate(0,0)"/>
<path d="" fill="#DDF0EB" transform="translate(0,0)"/>
<path d="" fill="#E4F6F3" transform="translate(0,0)"/>
<path d="" fill="#E2F3EF" transform="translate(0,0)"/>
<path d="" fill="#E3F7F2" transform="translate(0,0)"/>
<path d="" fill="#E7F7F4" transform="translate(0,0)"/>
<path d="" fill="#DCF0EA" transform="translate(0,0)"/>
<path d="M0 0 C2 1 2 1 2 1 Z " fill="#E7F9F5" transform="translate(395,293)"/>
<path d="M0 0 C2 1 2 1 2 1 Z " fill="#E7F8F7" transform="translate(416,288)"/>
<path d="" fill="#DBEDEA" transform="translate(0,0)"/>
<path d="M0 0 C2 1 2 1 2 1 Z " fill="#E8FAF7" transform="translate(340,281)"/>
<path d="" fill="#DAEFE9" transform="translate(0,0)"/>
<path d="" fill="#E6F7F4" transform="translate(0,0)"/>
<path d="" fill="#D8ECE8" transform="translate(0,0)"/>
<path d="" fill="#DBF0EB" transform="translate(0,0)"/>
<path d="" fill="#D8EDE8" transform="translate(0,0)"/>
<path d="" fill="#D5ECE6" transform="translate(0,0)"/>
<path d="" fill="#E6F8F7" transform="translate(0,0)"/>
<path d="" fill="#E5F7F3" transform="translate(0,0)"/>
<path d="" fill="#D5ECE5" transform="translate(0,0)"/>
<path d="" fill="#D7EDE8" transform="translate(0,0)"/>
<path d="" fill="#E6F7F5" transform="translate(0,0)"/>
<path d="M0 0 C2 1 2 1 2 1 Z " fill="#E6F7F5" transform="translate(473,184)"/>
<path d="" fill="#E4F7F4" transform="translate(0,0)"/>
<path d="" fill="#E5F7F3" transform="translate(0,0)"/>
<path d="" fill="#E6F9F5" transform="translate(0,0)"/>
<path d="" fill="#DAEEE8" transform="translate(0,0)"/>
<path d="" fill="#E4F7F4" transform="translate(0,0)"/>
<path d="" fill="#E6F6F4" transform="translate(0,0)"/>
<path d="M0 0 C2 1 2 1 2 1 Z " fill="#E4F5F3" transform="translate(673,139)"/>
<path d="M0 0 C2 1 2 1 2 1 Z " fill="#E3F4F0" transform="translate(642,132)"/>
<path d="M0 0 C2 1 2 1 2 1 Z " fill="#E2F5F0" transform="translate(432,127)"/>
<path d="M0 0 C2 1 2 1 2 1 Z " fill="#DEF2ED" transform="translate(612,126)"/>
<path d="M0 0 C2 1 2 1 2 1 Z " fill="#DDF2EE" transform="translate(610,125)"/>
<path d="M0 0 C2 1 2 1 2 1 Z " fill="#DDEFEB" transform="translate(604,124)"/>
<path d="M0 0 C2 1 2 1 2 1 Z " fill="#E4F6F4" transform="translate(405,116)"/>
<path d="" fill="#D3EBE3" transform="translate(0,0)"/>
<path d="M0 0 C2 1 2 1 2 1 Z " fill="#DAF0E9" transform="translate(364,92)"/>
<path d="" fill="#537956" transform="translate(0,0)"/>
<path d="" fill="#507753" transform="translate(0,0)"/>
<path d="" fill="#CAE1D8" transform="translate(0,0)"/>
<path d="" fill="#CBE2DB" transform="translate(0,0)"/>
<path d="" fill="#CCE3DB" transform="translate(0,0)"/>
<path d="" fill="#CBE1D5" transform="translate(0,0)"/>
<path d="" fill="#CBE2D7" transform="translate(0,0)"/>
<path d="" fill="#CCE4D8" transform="translate(0,0)"/>
<path d="" fill="#CBE3DA" transform="translate(0,0)"/>
<path d="" fill="#C8E0D7" transform="translate(0,0)"/>
<path d="" fill="#C9DFD7" transform="translate(0,0)"/>
<path d="" fill="#C8E2D7" transform="translate(0,0)"/>
<path d="" fill="#CAE0DA" transform="translate(0,0)"/>
<path d="" fill="#CFE4DF" transform="translate(0,0)"/>
<path d="" fill="#4F7551" transform="translate(0,0)"/>
<path d="" fill="#557856" transform="translate(0,0)"/>
<path d="" fill="#CBE5D9" transform="translate(0,0)"/>
<path d="" fill="#CAE1DB" transform="translate(0,0)"/>
<path d="" fill="#5B7F5E" transform="translate(0,0)"/>
<path d="" fill="#CAE1D7" transform="translate(0,0)"/>
<path d="" fill="#CEE5DD" transform="translate(0,0)"/>
<path d="" fill="#C8E1D7" transform="translate(0,0)"/>
<path d="" fill="#CDE4DB" transform="translate(0,0)"/>
<path d="" fill="#CBE1DA" transform="translate(0,0)"/>
<path d="" fill="#CAE1D8" transform="translate(0,0)"/>
<path d="" fill="#CCE4DA" transform="translate(0,0)"/>
<path d="" fill="#D2E8DE" transform="translate(0,0)"/>
<path d="" fill="#E7FAF6" transform="translate(0,0)"/>
<path d="" fill="#EAFAF6" transform="translate(0,0)"/>
<path d="" fill="#D0E5DC" transform="translate(0,0)"/>
<path d="" fill="#CEE4DC" transform="translate(0,0)"/>
<path d="" fill="#E8F9F7" transform="translate(0,0)"/>
<path d="" fill="#E7F8F7" transform="translate(0,0)"/>
<path d="" fill="#D2E7E0" transform="translate(0,0)"/>
<path d="" fill="#E5F5F2" transform="translate(0,0)"/>
<path d="" fill="#4F7551" transform="translate(0,0)"/>
<path d="" fill="#EBF9F5" transform="translate(0,0)"/>
<path d="" fill="#E8F9F6" transform="translate(0,0)"/>
<path d="" fill="#E9FAF8" transform="translate(0,0)"/>
<path d="" fill="#E6F7F5" transform="translate(0,0)"/>
<path d="" fill="#4F7552" transform="translate(0,0)"/>
<path d="" fill="#547656" transform="translate(0,0)"/>
<path d="" fill="#4F7450" transform="translate(0,0)"/>
<path d="" fill="#E8F9F7" transform="translate(0,0)"/>
<path d="" fill="#DCF0EA" transform="translate(0,0)"/>
<path d="" fill="#EAFCF9" transform="translate(0,0)"/>
<path d="" fill="#ECFCF7" transform="translate(0,0)"/>
<path d="" fill="#EAF9F8" transform="translate(0,0)"/>
<path d="" fill="#E7F9F7" transform="translate(0,0)"/>
<path d="" fill="#E9F9F7" transform="translate(0,0)"/>
<path d="" fill="#DDF4EC" transform="translate(0,0)"/>
<path d="" fill="#E9FAF7" transform="translate(0,0)"/>
<path d="" fill="#E9F9F6" transform="translate(0,0)"/>
<path d="" fill="#E6F9F6" transform="translate(0,0)"/>
<path d="" fill="#EAFAF9" transform="translate(0,0)"/>
<path d="" fill="#E8FAFA" transform="translate(0,0)"/>
<path d="" fill="#4F7452" transform="translate(0,0)"/>
<path d="" fill="#E9FAF7" transform="translate(0,0)"/>
<path d="" fill="#DDF1EC" transform="translate(0,0)"/>
<path d="" fill="#EBFAF9" transform="translate(0,0)"/>
<path d="" fill="#E9FAF8" transform="translate(0,0)"/>
<path d="" fill="#E8FAF8" transform="translate(0,0)"/>
<path d="" fill="#E8F9F7" transform="translate(0,0)"/>
<path d="" fill="#E8F9F7" transform="translate(0,0)"/>
<path d="" fill="#EBFAF8" transform="translate(0,0)"/>
<path d="" fill="#E9F9F9" transform="translate(0,0)"/>
<path d="" fill="#E8F9F8" transform="translate(0,0)"/>
<path d="" fill="#E8F9F7" transform="translate(0,0)"/>
<path d="" fill="#EAF9FA" transform="translate(0,0)"/>
<path d="" fill="#E9FBF9" transform="translate(0,0)"/>
<path d="" fill="#EBF7FB" transform="translate(0,0)"/>
<path d="" fill="#517756" transform="translate(0,0)"/>
<path d="" fill="#EAF9F9" transform="translate(0,0)"/>
<path d="" fill="#EAFAF9" transform="translate(0,0)"/>
<path d="" fill="#4D7451" transform="translate(0,0)"/>
<path d="" fill="#EBFAF9" transform="translate(0,0)"/>
<path d="" fill="#EAFAF8" transform="translate(0,0)"/>
<path d="" fill="#567B58" transform="translate(0,0)"/>
<path d="" fill="#ECFAFA" transform="translate(0,0)"/>
<path d="" fill="#EBF9F8" transform="translate(0,0)"/>
<path d="" fill="#517654" transform="translate(0,0)"/>
<path d="" fill="#EAFBF9" transform="translate(0,0)"/>
<path d="" fill="#EBF9F9" transform="translate(0,0)"/>
<path d="" fill="#EAFCFA" transform="translate(0,0)"/>
<path d="" fill="#ECFAF9" transform="translate(0,0)"/>
<path d="" fill="#ECFBFA" transform="translate(0,0)"/>
<path d="" fill="#EBFAFA" transform="translate(0,0)"/>
<path d="" fill="#EAFCF9" transform="translate(0,0)"/>
<path d="" fill="#EBFBF9" transform="translate(0,0)"/>
<path d="" fill="#EAFBFA" transform="translate(0,0)"/>
<path d="" fill="#EEFBF8" transform="translate(0,0)"/>
<path d="" fill="#EEFCFC" transform="translate(0,0)"/>
<path d="" fill="#DFF1EF" transform="translate(0,0)"/>
<path d="" fill="#E0F6EE" transform="translate(0,0)"/>
<path d="" fill="#DFF4EE" transform="translate(0,0)"/>
<path d="" fill="#E0F4EE" transform="translate(0,0)"/>
<path d="" fill="#E0F1EC" transform="translate(0,0)"/>
<path d="" fill="#ECFCFA" transform="translate(0,0)"/>
<path d="" fill="#EBFCF9" transform="translate(0,0)"/>
<path d="" fill="#EBFBF9" transform="translate(0,0)"/>
<path d="" fill="#EDFDFA" transform="translate(0,0)"/>
<path d="" fill="#EDFCFB" transform="translate(0,0)"/>
<path d="" fill="#ECFDFB" transform="translate(0,0)"/>
<path d="" fill="#E9FBF9" transform="translate(0,0)"/>
<path d="" fill="#ECFCF9" transform="translate(0,0)"/>
<path d="" fill="#EAFAF8" transform="translate(0,0)"/>
<path d="" fill="#ECFDFC" transform="translate(0,0)"/>
<path d="" fill="#E7F6F5" transform="translate(0,0)"/>
<path d="" fill="#E6F6F3" transform="translate(0,0)"/>
<path d="" fill="#EFFBFC" transform="translate(0,0)"/>
<path d="" fill="#DCF1EC" transform="translate(0,0)"/>
<path d="" fill="#DEF2ED" transform="translate(0,0)"/>
<path d="" fill="#E1F4EE" transform="translate(0,0)"/>
<path d="" fill="#E0F3EE" transform="translate(0,0)"/>
<path d="" fill="#E2F4F0" transform="translate(0,0)"/>
<path d="" fill="#E3F5F2" transform="translate(0,0)"/>
<path d="" fill="#DFF2ED" transform="translate(0,0)"/>
<path d="" fill="#E1F2EF" transform="translate(0,0)"/>
<path d="" fill="#E1F2F1" transform="translate(0,0)"/>
<path d="" fill="#E0F3F0" transform="translate(0,0)"/>
<path d="" fill="#E3F7F1" transform="translate(0,0)"/>
<path d="" fill="#ECFBFA" transform="translate(0,0)"/>
<path d="" fill="#DDF2EC" transform="translate(0,0)"/>
<path d="" fill="#E0F3EF" transform="translate(0,0)"/>
<path d="" fill="#EBFAFA" transform="translate(0,0)"/>
<path d="" fill="#E0F2F0" transform="translate(0,0)"/>
<path d="" fill="#DFF2EE" transform="translate(0,0)"/>
<path d="" fill="#597E5D" transform="translate(0,0)"/>
<path d="" fill="#EAFAF9" transform="translate(0,0)"/>
<path d="" fill="#EBFBFA" transform="translate(0,0)"/>
<path d="" fill="#EAFDFB" transform="translate(0,0)"/>
<path d="" fill="#DFF4EE" transform="translate(0,0)"/>
<path d="" fill="#DEF4ED" transform="translate(0,0)"/>
<path d="" fill="#E2F5F0" transform="translate(0,0)"/>
<path d="" fill="#EDFEFA" transform="translate(0,0)"/>
<path d="" fill="#ECFDFA" transform="translate(0,0)"/>
<path d="" fill="#ECFCFA" transform="translate(0,0)"/>
<path d="" fill="#EEFCFC" transform="translate(0,0)"/>
<path d="" fill="#E0F3F0" transform="translate(0,0)"/>
<path d="" fill="#E2F4F0" transform="translate(0,0)"/>
<path d="" fill="#EBFCFA" transform="translate(0,0)"/>
<path d="" fill="#E1F3EE" transform="translate(0,0)"/>
<path d="" fill="#E3F5F0" transform="translate(0,0)"/>
<path d="" fill="#E3F4F0" transform="translate(0,0)"/>
<path d="" fill="#527855" transform="translate(0,0)"/>
<path d="" fill="#DFF2EE" transform="translate(0,0)"/>
<path d="" fill="#DFF2EC" transform="translate(0,0)"/>
<path d="" fill="#EEFCFC" transform="translate(0,0)"/>
<path d="" fill="#E9FAF9" transform="translate(0,0)"/>
<path d="" fill="#E9FBF9" transform="translate(0,0)"/>
<path d="" fill="#ECFBFA" transform="translate(0,0)"/>
<path d="" fill="#D9F0EA" transform="translate(0,0)"/>
<path d="" fill="#DDF1ED" transform="translate(0,0)"/>
<path d="" fill="#E9FBF8" transform="translate(0,0)"/>
<path d="" fill="#E0F0EE" transform="translate(0,0)"/>
<path d="" fill="#DEF0EC" transform="translate(0,0)"/>
<path d="" fill="#E4F4F1" transform="translate(0,0)"/>
<path d="" fill="#E2F3EF" transform="translate(0,0)"/>
<path d="" fill="#E2F4F0" transform="translate(0,0)"/>
<path d="" fill="#E3F6F1" transform="translate(0,0)"/>
<path d="" fill="#E7F8F3" transform="translate(0,0)"/>
<path d="" fill="#E4F6F1" transform="translate(0,0)"/>
<path d="" fill="#E4F7F4" transform="translate(0,0)"/>
<path d="" fill="#E4F8F2" transform="translate(0,0)"/>
<path d="" fill="#E1F4F0" transform="translate(0,0)"/>
<path d="" fill="#E6F6F3" transform="translate(0,0)"/>
<path d="" fill="#E4F8F2" transform="translate(0,0)"/>
<path d="" fill="#E6F7F3" transform="translate(0,0)"/>
<path d="" fill="#E4F2EF" transform="translate(0,0)"/>
<path d="" fill="#E3F7F2" transform="translate(0,0)"/>
<path d="" fill="#E5F6F3" transform="translate(0,0)"/>
<path d="" fill="#E3F3F0" transform="translate(0,0)"/>
<path d="" fill="#E1F4F0" transform="translate(0,0)"/>
<path d="" fill="#E6F7F4" transform="translate(0,0)"/>
<path d="" fill="#E1F1F0" transform="translate(0,0)"/>
<path d="" fill="#E2F7F4" transform="translate(0,0)"/>
<path d="" fill="#E5F7F3" transform="translate(0,0)"/>
<path d="" fill="#E5F7F4" transform="translate(0,0)"/>
<path d="" fill="#4F7652" transform="translate(0,0)"/>
<path d="" fill="#587D5C" transform="translate(0,0)"/>
<path d="" fill="#E1F3EF" transform="translate(0,0)"/>
<path d="" fill="#E5F7F4" transform="translate(0,0)"/>
<path d="" fill="#E5F7F3" transform="translate(0,0)"/>
<path d="" fill="#DFF2ED" transform="translate(0,0)"/>
<path d="" fill="#E6FAF5" transform="translate(0,0)"/>
<path d="" fill="#517753" transform="translate(0,0)"/>
<path d="" fill="#E3F4F1" transform="translate(0,0)"/>
<path d="" fill="#E9FBF7" transform="translate(0,0)"/>
<path d="" fill="#E8F9F8" transform="translate(0,0)"/>
<path d="" fill="#EBFBF8" transform="translate(0,0)"/>
<path d="" fill="#E8FBF6" transform="translate(0,0)"/>
<path d="" fill="#DEF0ED" transform="translate(0,0)"/>
<path d="" fill="#E7F8F5" transform="translate(0,0)"/>
<path d="" fill="#E2F3F1" transform="translate(0,0)"/>
<path d="" fill="#E5F5F3" transform="translate(0,0)"/>
<path d="" fill="#DDF2EC" transform="translate(0,0)"/>
<path d="" fill="#E3F5EF" transform="translate(0,0)"/>
<path d="" fill="#E1F3F0" transform="translate(0,0)"/>
<path d="" fill="#E0F4F0" transform="translate(0,0)"/>
<path d="" fill="#DDF1EB" transform="translate(0,0)"/>
<path d="" fill="#DEF1EC" transform="translate(0,0)"/>
<path d="" fill="#DFF2ED" transform="translate(0,0)"/>
<path d="" fill="#DFF2ED" transform="translate(0,0)"/>
<path d="" fill="#DDF2ED" transform="translate(0,0)"/>
<path d="" fill="#DEF1ED" transform="translate(0,0)"/>
<path d="" fill="#DAF0E9" transform="translate(0,0)"/>
<path d="" fill="#DBEFEA" transform="translate(0,0)"/>
<path d="" fill="#E9F9F4" transform="translate(0,0)"/>
<path d="" fill="#DEF1EB" transform="translate(0,0)"/>
<path d="" fill="#E8F9F6" transform="translate(0,0)"/>
<path d="" fill="#E1F2EE" transform="translate(0,0)"/>
<path d="" fill="#E1F6F1" transform="translate(0,0)"/>
<path d="" fill="#E3F7F3" transform="translate(0,0)"/>
<path d="" fill="#E7F8F5" transform="translate(0,0)"/>
<path d="" fill="#E2F8F2" transform="translate(0,0)"/>
<path d="" fill="#E8F8F5" transform="translate(0,0)"/>
<path d="" fill="#DDEDEA" transform="translate(0,0)"/>
<path d="" fill="#DFEFEC" transform="translate(0,0)"/>
<path d="" fill="#E6F6F3" transform="translate(0,0)"/>
<path d="" fill="#E3F4F1" transform="translate(0,0)"/>
<path d="" fill="#E7F7F5" transform="translate(0,0)"/>
<path d="" fill="#E4F5F1" transform="translate(0,0)"/>
<path d="" fill="#E7F9F7" transform="translate(0,0)"/>
<path d="" fill="#E6F6F3" transform="translate(0,0)"/>
<path d="" fill="#E8F9F6" transform="translate(0,0)"/>
<path d="" fill="#DFF4F0" transform="translate(0,0)"/>
<path d="" fill="#DAEDE6" transform="translate(0,0)"/>
<path d="" fill="#E8FAF7" transform="translate(0,0)"/>
<path d="" fill="#DCEFE8" transform="translate(0,0)"/>
<path d="" fill="#ECF7F5" transform="translate(0,0)"/>
<path d="" fill="#E0F1EF" transform="translate(0,0)"/>
<path d="" fill="#E6F7F4" transform="translate(0,0)"/>
<path d="" fill="#DBEFEA" transform="translate(0,0)"/>
<path d="" fill="#DFF2EF" transform="translate(0,0)"/>
<path d="" fill="#E7F8F5" transform="translate(0,0)"/>
<path d="" fill="#D9EEE9" transform="translate(0,0)"/>
<path d="" fill="#DFF3EE" transform="translate(0,0)"/>
<path d="" fill="#E0F2EC" transform="translate(0,0)"/>
<path d="" fill="#D7EEE8" transform="translate(0,0)"/>
<path d="" fill="#DAF1EA" transform="translate(0,0)"/>
<path d="" fill="#E3F5F3" transform="translate(0,0)"/>
<path d="" fill="#E9F8F6" transform="translate(0,0)"/>
<path d="" fill="#E6F7F5" transform="translate(0,0)"/>
<path d="" fill="#D8EDE8" transform="translate(0,0)"/>
<path d="" fill="#E0F5F0" transform="translate(0,0)"/>
<path d="" fill="#EAF8F7" transform="translate(0,0)"/>
<path d="" fill="#D8EEE7" transform="translate(0,0)"/>
<path d="" fill="#DEF3EE" transform="translate(0,0)"/>
<path d="" fill="#E1F3EF" transform="translate(0,0)"/>
<path d="" fill="#E6F8F4" transform="translate(0,0)"/>
<path d="" fill="#E8F8F5" transform="translate(0,0)"/>
<path d="" fill="#DBF0EA" transform="translate(0,0)"/>
<path d="" fill="#E3F5F0" transform="translate(0,0)"/>
<path d="" fill="#E8F7F3" transform="translate(0,0)"/>
<path d="" fill="#D9EDE8" transform="translate(0,0)"/>
<path d="" fill="#D8EEE7" transform="translate(0,0)"/>
<path d="" fill="#DDF2EB" transform="translate(0,0)"/>
<path d="" fill="#E8F8F5" transform="translate(0,0)"/>
<path d="" fill="#D8EDE7" transform="translate(0,0)"/>
<path d="" fill="#DCEFEA" transform="translate(0,0)"/>
<path d="" fill="#D5EBE4" transform="translate(0,0)"/>
<path d="" fill="#D7EDE5" transform="translate(0,0)"/>
<path d="" fill="#E5F7F5" transform="translate(0,0)"/>
<path d="" fill="#E5F8F3" transform="translate(0,0)"/>
<path d="" fill="#D7EBE5" transform="translate(0,0)"/>
<path d="" fill="#E9F8F5" transform="translate(0,0)"/>
<path d="" fill="#E7F9F6" transform="translate(0,0)"/>
<path d="" fill="#E8F7F4" transform="translate(0,0)"/>
<path d="" fill="#E6F8F4" transform="translate(0,0)"/>
<path d="" fill="#D7EDE8" transform="translate(0,0)"/>
<path d="" fill="#E5F7F4" transform="translate(0,0)"/>
<path d="" fill="#DDF2ED" transform="translate(0,0)"/>
<path d="" fill="#D0E9E2" transform="translate(0,0)"/>
<path d="" fill="#E6F7F5" transform="translate(0,0)"/>
<path d="" fill="#D8EDE6" transform="translate(0,0)"/>
<path d="" fill="#D5ECE4" transform="translate(0,0)"/>
<path d="" fill="#DCF1EC" transform="translate(0,0)"/>
<path d="" fill="#E8F8F4" transform="translate(0,0)"/>
<path d="" fill="#D6ECE6" transform="translate(0,0)"/>
<path d="" fill="#EBFCF9" transform="translate(0,0)"/>
<path d="" fill="#E7F7F5" transform="translate(0,0)"/>
<path d="" fill="#E9FBF9" transform="translate(0,0)"/>
<path d="" fill="#EBFBFA" transform="translate(0,0)"/>
<path d="" fill="#DAEDE8" transform="translate(0,0)"/>
<path d="" fill="#D8EEE7" transform="translate(0,0)"/>
<path d="" fill="#E6F9F4" transform="translate(0,0)"/>
<path d="" fill="#D8EFE9" transform="translate(0,0)"/>
<path d="" fill="#E5F6F3" transform="translate(0,0)"/>
<path d="" fill="#E3F8F5" transform="translate(0,0)"/>
<path d="" fill="#E2F5F2" transform="translate(0,0)"/>
<path d="" fill="#E7F7F5" transform="translate(0,0)"/>
<path d="" fill="#D6ECE5" transform="translate(0,0)"/>
<path d="" fill="#E3F5F5" transform="translate(0,0)"/>
<path d="" fill="#E6F7F2" transform="translate(0,0)"/>
<path d="" fill="#D7EDE4" transform="translate(0,0)"/>
<path d="" fill="#DFF1ED" transform="translate(0,0)"/>
<path d="" fill="#E4F5F2" transform="translate(0,0)"/>
<path d="" fill="#E6F8F5" transform="translate(0,0)"/>
<path d="" fill="#D9EFE7" transform="translate(0,0)"/>
<path d="" fill="#E6F6F4" transform="translate(0,0)"/>
<path d="" fill="#D5EEE5" transform="translate(0,0)"/>
<path d="" fill="#D7EBE3" transform="translate(0,0)"/>
<path d="" fill="#DAEEE7" transform="translate(0,0)"/>
<path d="" fill="#E4F6F3" transform="translate(0,0)"/>
<path d="" fill="#E2F5F1" transform="translate(0,0)"/>
<path d="" fill="#E6F7F4" transform="translate(0,0)"/>
<path d="" fill="#E3F5F5" transform="translate(0,0)"/>
<path d="" fill="#E4F5F3" transform="translate(0,0)"/>
<path d="" fill="#E3F6F3" transform="translate(0,0)"/>
<path d="" fill="#E6F6F2" transform="translate(0,0)"/>
<path d="" fill="#D4EAE4" transform="translate(0,0)"/>
<path d="" fill="#E4F5F2" transform="translate(0,0)"/>
<path d="" fill="#E3F6F1" transform="translate(0,0)"/>
<path d="" fill="#E7F7F5" transform="translate(0,0)"/>
<path d="" fill="#D8EBE7" transform="translate(0,0)"/>
<path d="" fill="#E4F6F4" transform="translate(0,0)"/>
<path d="" fill="#E3F6F3" transform="translate(0,0)"/>
<path d="" fill="#E3F7F2" transform="translate(0,0)"/>
<path d="" fill="#DBF0EA" transform="translate(0,0)"/>
<path d="" fill="#E2F5F1" transform="translate(0,0)"/>
<path d="" fill="#E7F5F3" transform="translate(0,0)"/>
<path d="" fill="#E0F3F1" transform="translate(0,0)"/>
<path d="" fill="#E5F6F4" transform="translate(0,0)"/>
<path d="" fill="#D6EBE3" transform="translate(0,0)"/>
<path d="" fill="#D8ECE6" transform="translate(0,0)"/>
<path d="" fill="#D5EBE4" transform="translate(0,0)"/>
<path d="" fill="#D9ECE8" transform="translate(0,0)"/>
<path d="" fill="#DFF3F0" transform="translate(0,0)"/>
<path d="" fill="#E5F7F4" transform="translate(0,0)"/>
<path d="" fill="#D9EFE7" transform="translate(0,0)"/>
<path d="" fill="#E6FAF5" transform="translate(0,0)"/>
<path d="" fill="#E5F9F4" transform="translate(0,0)"/>
<path d="" fill="#DCF0EA" transform="translate(0,0)"/>
<path d="" fill="#D7ECE6" transform="translate(0,0)"/>
<path d="" fill="#E3F6F1" transform="translate(0,0)"/>
<path d="" fill="#E4F6F1" transform="translate(0,0)"/>
<path d="" fill="#E7F7F3" transform="translate(0,0)"/>
<path d="" fill="#E6F7F4" transform="translate(0,0)"/>
<path d="" fill="#E3F5F2" transform="translate(0,0)"/>
<path d="" fill="#D9EFE8" transform="translate(0,0)"/>
<path d="" fill="#E4F7F3" transform="translate(0,0)"/>
<path d="" fill="#D5EAE4" transform="translate(0,0)"/>
<path d="" fill="#D8EDE6" transform="translate(0,0)"/>
<path d="" fill="#CFE6DD" transform="translate(0,0)"/>
<path d="" fill="#E6F7F5" transform="translate(0,0)"/>
<path d="" fill="#D6EEE7" transform="translate(0,0)"/>
<path d="" fill="#D7EDE6" transform="translate(0,0)"/>
<path d="" fill="#DCEFE9" transform="translate(0,0)"/>
<path d="" fill="#D9EEEB" transform="translate(0,0)"/>
<path d="" fill="#DAEFE9" transform="translate(0,0)"/>
<path d="" fill="#DDEEEB" transform="translate(0,0)"/>
<path d="" fill="#507652" transform="translate(0,0)"/>
<path d="" fill="#D3EAE4" transform="translate(0,0)"/>
<path d="" fill="#D4EAE4" transform="translate(0,0)"/>
<path d="" fill="#D5ECE5" transform="translate(0,0)"/>
<path d="" fill="#DAEEE9" transform="translate(0,0)"/>
<path d="" fill="#D9EDE7" transform="translate(0,0)"/>
<path d="" fill="#CDE3DB" transform="translate(0,0)"/>
<path d="" fill="#DBEDEA" transform="translate(0,0)"/>
<path d="" fill="#DCF1E9" transform="translate(0,0)"/>
<path d="" fill="#DCF0E9" transform="translate(0,0)"/>
<path d="" fill="#D8EEE8" transform="translate(0,0)"/>
<path d="" fill="#D7ECE6" transform="translate(0,0)"/>
<path d="" fill="#4E7552" transform="translate(0,0)"/>
</svg>
