<?xml version="1.0" encoding="UTF-8"?>
<svg version="1.1" xmlns="http://www.w3.org/2000/svg" width="441" height="566">
<path d="M0 0 C0.99 0.33 1.98 0.66 3 1 C2 4 2 4 -0.78125 5.68359375 C-2.01292942 6.28470207 -3.2533002 6.86819778 -4.5 7.4375 C-5.16563965 7.74316895 -5.8312793 8.04883789 -6.51708984 8.36376953 C-11.44675431 10.52658675 -16.39186041 12.1261826 -21.625 13.375 C-22.26759766 13.53025146 -22.91019531 13.68550293 -23.57226562 13.84545898 C-36.28810827 16.61244907 -49.48956036 16.157691 -62.42553711 16.13037109 C-65.40028108 16.12506637 -68.37487031 16.13031458 -71.34960938 16.13671875 C-81.18829458 16.14063658 -91.00621423 15.99397718 -100.8359375 15.55859375 C-101.70878891 15.52037506 -102.58164032 15.48215637 -103.48094177 15.44277954 C-109.41065497 15.15175286 -115.2879937 14.59290718 -121.1875 13.9375 C-130.32838827 13.01402503 -139.44411864 12.75495199 -148.62515259 12.70144653 C-150.13949325 12.69231304 -151.6538144 12.67839551 -153.1680603 12.65914917 C-168.04256833 12.49158593 -181.42824189 14.43895429 -195 21 C-196.06734375 21.51240234 -196.06734375 21.51240234 -197.15625 22.03515625 C-201.09879165 24.09830834 -203.39639092 26.44173425 -206 30 C-208.625 32.8125 -208.625 32.8125 -211 35 C-211.66 35 -212.32 35 -213 35 C-213.4021875 36.04027344 -213.4021875 36.04027344 -213.8125 37.1015625 C-214.63109171 39.09957254 -215.51036194 41.07342429 -216.4375 43.0234375 C-226.25936398 64.09133574 -224.2335367 88.36699306 -217 110 C-216.75620605 110.75539063 -216.51241211 111.51078125 -216.26123047 112.2890625 C-212.66697956 123.39576059 -208.49512677 133.88491385 -202.97753906 144.17578125 C-202.01937419 145.96384516 -201.08191066 147.76144591 -200.1484375 149.5625 C-196.7748068 155.9828016 -193.18203571 162.07785287 -189 168 C-187.95779297 169.50046875 -187.95779297 169.50046875 -186.89453125 171.03125 C-183.13919213 176.39176331 -179.29638388 181.65706173 -175.2421875 186.796875 C-174.60216797 187.60842041 -173.96214844 188.41996582 -173.30273438 189.25610352 C-172.03230864 190.85845532 -170.75510233 192.45545785 -169.47070312 194.04663086 C-168.88998047 194.77760986 -168.30925781 195.50858887 -167.7109375 196.26171875 C-167.18806152 196.91100342 -166.66518555 197.56028809 -166.12646484 198.22924805 C-165 200 -165 200 -165 203 C-164.34 203 -163.68 203 -163 203 C-150.58788747 220.33222921 -141.0978198 240.86285132 -144.39453125 262.6015625 C-145.84740241 268.65675457 -148.35006399 274.24308073 -150.8125 279.9375 C-170.0499104 324.67875124 -167.60902253 377.23934847 -157 424 C-156.84466797 424.69448242 -156.68933594 425.38896484 -156.52929688 426.10449219 C-155.71366339 429.74306492 -154.87321713 433.37482586 -154 437 C-151.89329258 430.97776886 -150.16765007 424.95333967 -148.6875 418.75 C-141.46085994 389.23683411 -132.55000145 359.71596626 -120 332 C-119.48050781 330.82824219 -118.96101563 329.65648437 -118.42578125 328.44921875 C-111.88509612 313.89803161 -104.08048 300.1119 -95 287 C-93.91400385 285.3559225 -92.83046897 283.71021517 -91.75 282.0625 C-89.64171171 278.91152565 -87.54673502 275.81959948 -85 273 C-84.34 273 -83.68 273 -83 273 C-82.73832031 272.42121094 -82.47664062 271.84242188 -82.20703125 271.24609375 C-79.10789615 265.47909478 -73.81624857 260.40342726 -69 256 C-68.34 256 -67.68 256 -67 256 C-66.67 255.01 -66.34 254.02 -66 253 C-65.34 253 -64.68 253 -64 253 C-63.67 252.01 -63.34 251.02 -63 250 C-62.34 250 -61.68 250 -61 250 C-61 249.34 -61 248.68 -61 248 C-60.01 248 -59.02 248 -58 248 C-57.67 247.01 -57.34 246.02 -57 245 C-54.9375 244.3125 -54.9375 244.3125 -53 244 C-53 243.34 -53 242.68 -53 242 C-50.946084 240.48083136 -48.91036052 239.10317127 -46.75 237.75 C-46.1219043 237.35176025 -45.49380859 236.95352051 -44.84667969 236.54321289 C-29.55753313 227 -29.55753313 227 -25 227 C-25 227.66 -25 228.32 -25 229 C-26.68125012 230.19542478 -28.42248083 231.30712843 -30.1875 232.375 C-33.19471737 234.20267963 -35.96788877 235.9732797 -38.67578125 238.2265625 C-41 240 -41 240 -44 240 C-44.33 240.99 -44.66 241.98 -45 243 C-46.53270571 244.35135503 -48.12776773 245.63253887 -49.75 246.875 C-67.33945946 261.01019869 -80.71293012 278.55509622 -92 298 C-92.34869141 298.5995752 -92.69738281 299.19915039 -93.05664062 299.81689453 C-99.33811475 310.76743761 -104.26548914 322.31285 -109 334 C-109.3079248 334.75700195 -109.61584961 335.51400391 -109.93310547 336.29394531 C-118.62240682 357.95662073 -124.72526018 380.93159439 -129.52050781 403.74462891 C-129.98597797 405.93404506 -130.48109955 408.11497768 -130.98046875 410.296875 C-131.78816147 413.91075685 -132.48302956 417.53695943 -133.1484375 421.1796875 C-133.34953125 422.27410156 -133.550625 423.36851562 -133.7578125 424.49609375 C-134.1676392 426.73976522 -134.57133749 428.98456517 -134.96875 431.23046875 C-136.90802529 441.67555277 -139.33891476 451.93455152 -146.75 459.875 C-150.13830126 461.56915063 -153.34079412 461.65192748 -157 461 C-160.5 459.125 -160.5 459.125 -163 457 C-163 456.34 -163 455.68 -163 455 C-163.66 455 -164.32 455 -165 455 C-176.89149302 435.88867192 -179.25013008 410.75726666 -183 389 C-183.16274414 388.08250977 -183.32548828 387.16501953 -183.49316406 386.21972656 C-188.45207444 357.84790455 -190.24835295 325.87414932 -182 298 C-181.73880371 297.08798828 -181.47760742 296.17597656 -181.20849609 295.23632812 C-175.82232648 276.47876892 -175.82232648 276.47876892 -172.125 268.3125 C-169.59004507 262.56715807 -169.02568958 257.24256907 -169 251 C-168.96519531 250.21496094 -168.93039063 249.42992187 -168.89453125 248.62109375 C-169.11974809 236.5208074 -177.64750035 223.87235433 -184 214 C-184.51949219 213.16855469 -185.03898437 212.33710938 -185.57421875 211.48046875 C-188.99864494 206.02852683 -192.54523457 200.66295901 -196.125 195.3125 C-206 180.53890713 -206 180.53890713 -206 178 C-206.66 178 -207.32 178 -208 178 C-208.37511719 177.31035156 -208.75023437 176.62070313 -209.13671875 175.91015625 C-209.64847656 174.97042969 -210.16023438 174.03070313 -210.6875 173.0625 C-211.24050781 172.04671875 -211.79351562 171.0309375 -212.36328125 169.984375 C-213.68104965 167.58157058 -215.02191984 165.19539885 -216.375 162.8125 C-230.27272526 137.68968894 -239.43957659 113.14995697 -239.3125 84.0625 C-239.30831055 82.74725342 -239.30412109 81.43200684 -239.29980469 80.0769043 C-239.1943329 71.03157645 -238.65848185 62.69736087 -236 54 C-235.7215625 53.05253906 -235.443125 52.10507813 -235.15625 51.12890625 C-229.44264503 33.76644287 -218.14348864 16.69109026 -201.578125 8.08984375 C-196.22653196 5.82757942 -190.63996658 4.35524905 -185 3 C-184.29705811 2.82049805 -183.59411621 2.64099609 -182.86987305 2.45605469 C-175.18804553 0.67480753 -167.5415157 0.60559756 -159.6875 0.625 C-158.9709021 0.62454681 -158.2543042 0.62409363 -157.51599121 0.62362671 C-142.43186269 0.65135029 -127.88262603 2.55730066 -113 5 C-59.97595373 13.4662861 -59.97595373 13.4662861 -7.8359375 3.98828125 C-5 3 -5 3 -2 3 C-2 2.34 -2 1.68 -2 1 C-1.34 0.67 -0.68 0.34 0 0 Z " fill="#111111" transform="translate(279,49)"/>
<path d="M0 0 C20.58807794 18.43894424 29.47742572 45.6742004 30.99911499 72.77276611 C31.20342444 78.28546901 31.21123062 83.79673821 31.1875 89.3125 C31.18576279 90.56592194 31.18576279 90.56592194 31.18399048 91.84466553 C31.15067231 103.99895793 30.62989459 115.68040793 27.875 127.5625 C27.68164062 128.55636719 27.48828125 129.55023438 27.2890625 130.57421875 C24.15952919 145.14483811 18.30124787 159.65125691 11.3203125 172.78515625 C9.8688486 175.45200343 9.8688486 175.45200343 8.95263672 177.93066406 C7.86895615 180.57726046 6.60648706 182.96769224 5.1875 185.44921875 C4.65842041 186.37863281 4.12934082 187.30804688 3.58422852 188.265625 C3.02018311 189.25046875 2.4561377 190.2353125 1.875 191.25 C0.69638521 193.32669275 -0.48199768 195.40351714 -1.66015625 197.48046875 C-3.76237631 201.17627925 -5.87470633 204.86595007 -7.99609375 208.55078125 C-13.19653227 217.65130677 -17.60926105 226.67243063 -21.125 236.5625 C-21.3634816 237.21464981 -21.6019632 237.86679962 -21.84767151 238.53871155 C-23.78533057 244.03611671 -24.9447246 249.37852485 -25.71875 255.1484375 C-25.84334595 256.0509726 -25.96794189 256.95350769 -26.09631348 257.88339233 C-27.36754775 267.59795963 -27.94569147 277.33996684 -28.46139526 287.118927 C-30.37524253 323.01507638 -35.26021266 357.47958866 -43.125 392.5625 C-43.32706055 393.48691895 -43.52912109 394.41133789 -43.73730469 395.36376953 C-46.87535317 409.62001561 -51.75917412 423.00383354 -57.125 436.5625 C-57.57875 437.74714844 -58.0325 438.93179687 -58.5 440.15234375 C-65.31112883 457.39301359 -75.05664497 474.37526168 -87.6953125 488.01171875 C-89.02650794 489.45566572 -90.2384986 491.00703872 -91.4375 492.5625 C-91.994375 493.2225 -92.55125 493.8825 -93.125 494.5625 C-93.785 494.5625 -94.445 494.5625 -95.125 494.5625 C-95.455 495.5525 -95.785 496.5425 -96.125 497.5625 C-96.785 497.5625 -97.445 497.5625 -98.125 497.5625 C-98.455 498.5525 -98.785 499.5425 -99.125 500.5625 C-99.785 500.5625 -100.445 500.5625 -101.125 500.5625 C-101.125 501.2225 -101.125 501.8825 -101.125 502.5625 C-103.4609375 504.25390625 -103.4609375 504.25390625 -106.5 506.125 C-107.49773437 506.74503906 -108.49546875 507.36507812 -109.5234375 508.00390625 C-114.72806727 511.12199525 -119.11531509 511.04083961 -125.125 510.5625 C-129.38432775 508.8765161 -131.20583645 506.68870163 -133.125 502.5625 C-136.63397615 485.67101479 -132.51474674 468.35489491 -128.18579102 452.01806641 C-125.78811829 442.87594574 -124.04609638 433.79151454 -122.74194336 424.43334961 C-122.43502037 422.23221706 -122.11596565 420.0330977 -121.79492188 417.83398438 C-121.20418971 413.7475374 -120.65468706 409.65732701 -120.125 405.5625 C-120.00721191 404.65306641 -119.88942383 403.74363281 -119.76806641 402.80664062 C-118.8121614 394.08164769 -118.9029729 385.28145339 -118.88476562 376.51464844 C-118.8751406 373.72820233 -118.84407248 370.94252144 -118.8125 368.15625 C-118.66993514 343.68617354 -122.37270196 320.0231983 -133.85546875 298.19140625 C-134.94178759 295.94189063 -135.64671085 294.00004591 -136.125 291.5625 C-136.785 291.5625 -137.445 291.5625 -138.125 291.5625 C-138.62 289.5825 -138.62 289.5825 -139.125 287.5625 C-139.785 287.5625 -140.445 287.5625 -141.125 287.5625 C-142.4140625 286.13671875 -142.4140625 286.13671875 -143.75 284.25 C-144.41902344 283.32767578 -144.41902344 283.32767578 -145.1015625 282.38671875 C-146.125 280.5625 -146.125 280.5625 -146.125 277.5625 C-142.63276142 278.8559217 -140.81481351 280.90988523 -138.56640625 283.83203125 C-137.03794685 285.73130151 -137.03794685 285.73130151 -134.7109375 287.88671875 C-111.07849079 312.34023234 -108.69989976 353.10709928 -109.03515625 385.10546875 C-109.40752394 399.43352973 -111.04128646 413.38875071 -113.125 427.5625 C-113.62743625 430.99964979 -114.12777915 434.43709174 -114.625 437.875 C-114.74713867 438.71949707 -114.86927734 439.56399414 -114.99511719 440.43408203 C-116.00394448 447.50778837 -116.89567942 454.59358807 -117.75 461.6875 C-117.87310547 462.70626221 -117.99621094 463.72502441 -118.12304688 464.7746582 C-119.71732105 477.47569471 -119.71732105 477.47569471 -120.1875 490.25 C-120.17847656 491.07886719 -120.16945312 491.90773438 -120.16015625 492.76171875 C-120.14855469 493.35597656 -120.13695312 493.95023438 -120.125 494.5625 C-119.29355469 494.129375 -119.29355469 494.129375 -118.4453125 493.6875 C-117.72085938 493.31625 -116.99640625 492.945 -116.25 492.5625 C-115.53070313 492.19125 -114.81140625 491.82 -114.0703125 491.4375 C-112.125 490.5625 -112.125 490.5625 -110.125 490.5625 C-110.125 489.9025 -110.125 489.2425 -110.125 488.5625 C-108.47497172 487.20863064 -106.8075613 485.87571858 -105.125 484.5625 C-104.795 483.9025 -104.465 483.2425 -104.125 482.5625 C-103.465 482.5625 -102.805 482.5625 -102.125 482.5625 C-101.89683594 482.05460937 -101.66867187 481.54671875 -101.43359375 481.0234375 C-99.23255823 476.88417667 -96.49076354 473.09212386 -93.84570312 469.2265625 C-91.29052684 465.44901425 -89.09856985 461.68690646 -87.125 457.5625 C-86.1659375 455.95375 -86.1659375 455.95375 -85.1875 454.3125 C-82.6632364 449.91876299 -80.9386702 445.28398897 -79.125 440.5625 C-78.59393991 439.2363807 -78.06126377 437.91090792 -77.52734375 436.5859375 C-71.95246525 422.6565187 -66.55744746 408.42158121 -64.125 393.5625 C-63.79887971 391.83195846 -63.46540029 390.10278937 -63.125 388.375 C-62.980625 387.61832031 -62.83625 386.86164063 -62.6875 386.08203125 C-62.25578619 384.14831315 -61.72959989 382.23549423 -61.16381836 380.33666992 C-59.42383663 374.01507706 -58.6017521 367.54465875 -57.6875 361.0625 C-57.52417175 359.91033493 -57.52417175 359.91033493 -57.35754395 358.7348938 C-53.65778513 332.15973905 -52.40086677 305.2405302 -51.625 278.4375 C-50.90842933 254.7358283 -46.81001741 231.04113993 -34.125 210.5625 C-33.06213586 208.70854205 -31.99965854 206.85436229 -30.9375 205 C-27.82775973 199.64835396 -24.45997292 194.52534771 -20.984375 189.40625 C-18.8251182 186.10385724 -16.93919905 182.71243172 -15.1328125 179.20703125 C-14.125 177.5625 -14.125 177.5625 -12.125 176.5625 C-11.18641789 174.9095194 -10.32510923 173.21244737 -9.5 171.5 C-8.97148437 170.41074219 -8.44296875 169.32148438 -7.8984375 168.19921875 C-7.61323242 167.60931152 -7.32802734 167.0194043 -7.03417969 166.41162109 C-6.10262907 164.51700123 -5.13845582 162.64244691 -4.1640625 160.76953125 C0.25922544 152.22437374 4.0509081 143.63381884 7.19140625 134.53613281 C7.64017829 133.24046381 8.09823729 131.94796684 8.56640625 130.65917969 C19.75822562 99.78574653 20.63974646 59.77607935 6.875 29.5625 C3.25351415 22.21076197 3.25351415 22.21076197 -1.83203125 15.8671875 C-3.125 14.5625 -3.125 14.5625 -3.125 12.5625 C-4.115 12.2325 -5.105 11.9025 -6.125 11.5625 C-6.785 10.86125 -7.445 10.16 -8.125 9.4375 C-20.41365884 -3.37249589 -38.38944002 -7.10905103 -55.38134766 -7.48779297 C-61.29805464 -7.58451411 -67.20874546 -7.54721157 -73.125 -7.4375 C-73.86830566 -7.42493164 -74.61161133 -7.41236328 -75.37744141 -7.39941406 C-96.61616398 -6.92496801 -116.71232849 -0.53271648 -136.875 5.625 C-139.08278862 6.29808268 -141.29071794 6.97069803 -143.49884033 7.64268494 C-144.86034514 8.05714284 -146.22164802 8.47226492 -147.58270264 8.88819885 C-151.75142917 10.15869062 -155.93190707 11.37571822 -160.125 12.5625 C-160.455 11.5725 -160.785 10.5825 -161.125 9.5625 C-156.48186475 6.60777757 -151.67697869 4.40446669 -146.44921875 2.6796875 C-143.94339546 1.83754242 -141.4836122 0.9537438 -139.015625 0.01171875 C-123.36907261 -5.94790627 -107.64483784 -10.60451602 -91.125 -13.4375 C-90.01511719 -13.64375 -88.90523438 -13.85 -87.76171875 -14.0625 C-59.60101966 -18.49434772 -23.4222772 -18.48288541 0 0 Z " fill="#131212" transform="translate(370.125,35.4375)"/>
<path d="M0 0 C0 1.32 0 2.64 0 4 C0.99 4.33 1.98 4.66 3 5 C2.04480469 5.18175781 1.08960938 5.36351562 0.10546875 5.55078125 C-1.18746094 5.80214844 -2.48039062 6.05351562 -3.8125 6.3125 C-5.07707031 6.55613281 -6.34164062 6.79976562 -7.64453125 7.05078125 C-18.52452047 9.32385432 -29.12969009 12.81903807 -39.75 16.0625 C-41.95778862 16.73558268 -44.16571794 17.40819803 -46.37384033 18.08018494 C-47.73534514 18.49464284 -49.09664802 18.90976492 -50.45770264 19.32569885 C-54.62642917 20.59619062 -58.80690707 21.81321822 -63 23 C-63.33 22.01 -63.66 21.02 -64 20 C-59.35686475 17.04527757 -54.55197869 14.84196669 -49.32421875 13.1171875 C-46.81839546 12.27504242 -44.3586122 11.3912438 -41.890625 10.44921875 C-33.73946759 7.34577625 -25.59867246 4.44849443 -17.1875 2.125 C-16.45370117 1.92221436 -15.71990234 1.71942871 -14.96386719 1.51049805 C-4.15827445 -1.38609148 -4.15827445 -1.38609148 0 0 Z " fill="#332F32" transform="translate(273,25)"/>
<path d="M0 0 C0 0.66 0 1.32 0 2 C-1.68125012 3.19542478 -3.42248083 4.30712843 -5.1875 5.375 C-8.19471737 7.20267963 -10.96788877 8.9732797 -13.67578125 11.2265625 C-16 13 -16 13 -19 13 C-19.33 13.99 -19.66 14.98 -20 16 C-21.53270571 17.35135503 -23.12776773 18.63253887 -24.75 19.875 C-34.61754269 27.76389481 -43.66615794 36.67928409 -51 47 C-51.66666667 45 -52.33333333 43 -53 41 C-53.33 41.66 -53.66 42.32 -54 43 C-54.66 42.67 -55.32 42.34 -56 42 C-47.7904032 32.4655115 -47.7904032 32.4655115 -44 29 C-43.34 29 -42.68 29 -42 29 C-41.67 28.01 -41.34 27.02 -41 26 C-40.34 26 -39.68 26 -39 26 C-38.67 25.01 -38.34 24.02 -38 23 C-37.34 23 -36.68 23 -36 23 C-36 22.34 -36 21.68 -36 21 C-35.01 21 -34.02 21 -33 21 C-32.67 20.01 -32.34 19.02 -32 18 C-29.9375 17.3125 -29.9375 17.3125 -28 17 C-28 16.34 -28 15.68 -28 15 C-25.946084 13.48083136 -23.91036052 12.10317127 -21.75 10.75 C-21.1219043 10.35176025 -20.49380859 9.95352051 -19.84667969 9.54321289 C-4.55753313 0 -4.55753313 0 0 0 Z " fill="#5F5A5D" transform="translate(254,276)"/>
<path d="M0 0 C0.99 0.33 1.98 0.66 3 1 C2 4 2 4 -0.78125 5.68359375 C-2.01292942 6.28470207 -3.2533002 6.86819778 -4.5 7.4375 C-5.16563965 7.74316895 -5.8312793 8.04883789 -6.51708984 8.36376953 C-11.44675431 10.52658675 -16.39186041 12.1261826 -21.625 13.375 C-22.26759766 13.53025146 -22.91019531 13.68550293 -23.57226562 13.84545898 C-37.70060553 16.919811 -52.45068354 16.12096657 -66.8125 16.0625 C-68.9694 16.05747453 -71.12630114 16.05291348 -73.28320312 16.04882812 C-78.52216053 16.03790651 -83.76107484 16.02125158 -89 16 C-89 15.67 -89 15.34 -89 15 C-88.28344238 14.97494385 -87.56688477 14.9498877 -86.82861328 14.92407227 C-83.59388486 14.80830249 -80.35946159 14.68549031 -77.125 14.5625 C-75.99707031 14.52318359 -74.86914062 14.48386719 -73.70703125 14.44335938 C-72.63066406 14.40146484 -71.55429688 14.35957031 -70.4453125 14.31640625 C-68.95281982 14.26141968 -68.95281982 14.26141968 -67.43017578 14.20532227 C-64.99220499 14.15040468 -64.99220499 14.15040468 -63 13 C-65.64 12.67 -68.28 12.34 -71 12 C-71 11.67 -71 11.34 -71 11 C-70.20118408 11.01571045 -69.40236816 11.0314209 -68.5793457 11.04760742 C-47.74505132 11.40179491 -27.61132406 11.38768086 -7.8359375 3.98828125 C-5 3 -5 3 -2 3 C-2 2.34 -2 1.68 -2 1 C-1.34 0.67 -0.68 0.34 0 0 Z " fill="#6A6568" transform="translate(279,49)"/>
<path d="M0 0 C3.49223858 1.2934217 5.31018649 3.34738523 7.55859375 6.26953125 C9.08705315 8.16880151 9.08705315 8.16880151 11.4140625 10.32421875 C18.0984299 17.24082248 28 32.17954056 28 42 C26.02 42.495 26.02 42.495 24 43 C24 44.65 24 46.3 24 48 C22.17531071 44.61603078 20.97911407 41.13817765 19.75 37.5 C17.67035035 31.57052273 15.18830141 26.08108254 12.234375 20.5234375 C11.15408535 18.31499726 10.47318306 16.39971409 10 14 C9.34 14 8.68 14 8 14 C7.67 12.68 7.34 11.36 7 10 C6.34 10 5.68 10 5 10 C3.7109375 8.57421875 3.7109375 8.57421875 2.375 6.6875 C1.92898437 6.07261719 1.48296875 5.45773437 1.0234375 4.82421875 C0 3 0 3 0 0 Z " fill="#565156" transform="translate(224,313)"/>
<path d="M0 0 C-1.31289145 2.91758044 -2.7037938 4.92954905 -5.01171875 7.13671875 C-5.89706299 7.99692627 -5.89706299 7.99692627 -6.80029297 8.87451172 C-7.42307129 9.47279785 -8.04584961 10.07108398 -8.6875 10.6875 C-13.93064002 15.81272632 -18.76786234 20.98590964 -23 27 C-23.66666667 25 -24.33333333 23 -25 21 C-25.33 21.66 -25.66 22.32 -26 23 C-26.66 22.67 -27.32 22.34 -28 22 C-17.91879328 10.33298549 -17.91879328 10.33298549 -14.671875 9.15625 C-10.73410717 7.45218673 -8.15238206 4.62054389 -5.0859375 1.6796875 C-3 0 -3 0 0 0 Z " fill="#434141" transform="translate(226,296)"/>
<path d="M0 0 C0 1.32 0 2.64 0 4 C0.99 4.33 1.98 4.66 3 5 C1.95199219 5.20496094 0.90398437 5.40992188 -0.17578125 5.62109375 C-1.55470769 5.89312686 -2.93361283 6.16526791 -4.3125 6.4375 C-5.00279297 6.57220703 -5.69308594 6.70691406 -6.40429688 6.84570312 C-9.34289007 7.42774332 -12.15456685 8.05152228 -15 9 C-17.06145107 9.068991 -19.12501401 9.08467727 -21.1875 9.0625 C-22.81751953 9.04896484 -22.81751953 9.04896484 -24.48046875 9.03515625 C-25.31191406 9.02355469 -26.14335937 9.01195312 -27 9 C-26.67 8.01 -26.34 7.02 -26 6 C-24.68 6 -23.36 6 -22 6 C-22 5.34 -22 4.68 -22 4 C-19.95990245 3.34922704 -17.91784331 2.70460176 -15.875 2.0625 C-14.16957031 1.52302734 -14.16957031 1.52302734 -12.4296875 0.97265625 C-4.13723077 -1.37907692 -4.13723077 -1.37907692 0 0 Z " fill="#272326" transform="translate(273,25)"/>
<path d="M0 0 C4.61251942 3.97189172 7.0631034 8.22177215 9 14 C9 14.99 9 15.98 9 17 C7.68 17.33 6.36 17.66 5 18 C5 19.65 5 21.3 5 23 C1.18443142 15.95587339 -0.93738995 9.02973952 -1 1 C-0.67 0.67 -0.34 0.34 0 0 Z " fill="#333033" transform="translate(243,338)"/>
<path d="M0 0 C2.55106029 0.15644172 5.07918663 0.25821389 7.6328125 0.31640625 C8.38464813 0.33718735 9.13648376 0.35796844 9.91110229 0.37937927 C12.31564085 0.44482705 14.72028967 0.50373738 17.125 0.5625 C18.75391771 0.60568977 20.38282422 0.64930421 22.01171875 0.69335938 C26.00769915 0.80050351 30.00379059 0.90178433 34 1 C34 0.34 34 -0.32 34 -1 C47.86 -0.505 47.86 -0.505 62 0 C62 0.33 62 0.66 62 1 C45.29197117 1.92576169 28.60479298 2.11056674 11.875 2.125 C10.85500916 2.12749756 9.83501831 2.12999512 8.78411865 2.13256836 C5.8326077 2.13849711 2.8811998 2.13695185 -0.0703125 2.1328125 C-1.39409912 2.13578842 -1.39409912 2.13578842 -2.74462891 2.13882446 C-7.91792507 2.11959635 -12.87931768 1.74505521 -18 1 C-18 0.67 -18 0.34 -18 0 C-15.3753399 -0.19430855 -12.75053235 -0.38073238 -10.125 -0.5625 C-9.00544922 -0.64661133 -9.00544922 -0.64661133 -7.86328125 -0.73242188 C-2.2265625 -1.11328125 -2.2265625 -1.11328125 0 0 Z " fill="#150E12" transform="translate(178,62)"/>
<path d="M0 0 C0.99 0.33 1.98 0.66 3 1 C2 4 2 4 -1.23828125 5.859375 C-2.59119695 6.50057988 -3.94956829 7.13036968 -5.3125 7.75 C-5.98990234 8.07871094 -6.66730469 8.40742187 -7.36523438 8.74609375 C-11.04809137 10.45252016 -13.13678153 11.27053652 -17 10 C-16.67 9.67 -16.34 9.34 -16 9 C-17.32 8.67 -18.64 8.34 -20 8 C-17.56427941 7.16112944 -15.12666783 6.32873471 -12.6875 5.5 C-11.65206055 5.14228516 -11.65206055 5.14228516 -10.59570312 4.77734375 C-7.61068511 3.76791737 -5.17341086 3 -2 3 C-2 2.34 -2 1.68 -2 1 C-1.34 0.67 -0.68 0.34 0 0 Z " fill="#545051" transform="translate(279,49)"/>
<path d="M0 0 C0.66 0.99 1.32 1.98 2 3 C1.34 3.433125 0.68 3.86625 0 4.3125 C-0.66 4.869375 -1.32 5.42625 -2 6 C-2 6.99 -2 7.98 -2 9 C-3.49609375 10.5 -3.49609375 10.5 -5.4375 12 C-8.50431929 14.37699685 -8.50431929 14.37699685 -10 18 C-10.99 18 -11.98 18 -13 18 C-13.66 18.66 -14.32 19.32 -15 20 C-16.32 19.34 -17.64 18.68 -19 18 C-17.02 17.34 -15.04 16.68 -13 16 C-13 15.34 -13 14.68 -13 14 C-11.34997172 12.64613064 -9.6825613 11.31321858 -8 10 C-7.67 9.34 -7.34 8.68 -7 8 C-6.34 8 -5.68 8 -5 8 C-4.731875 7.4225 -4.46375 6.845 -4.1875 6.25 C-2.98280141 3.9674132 -1.59201885 2.0262058 0 0 Z " fill="#3B3A3A" transform="translate(273,510)"/>
<path d="M0 0 C2.50036518 2.50036518 3 3.45526653 3 7 C1.24872213 9.58139429 -0.80403184 11.79130159 -3 14 C-3.66666667 12 -4.33333333 10 -5 8 C-5.33 8.66 -5.66 9.32 -6 10 C-6.66 9.67 -7.32 9.34 -8 9 C-6.85459775 7.68712379 -5.70866567 6.37470979 -4.5625 5.0625 C-3.92441406 4.33160156 -3.28632813 3.60070312 -2.62890625 2.84765625 C-1.77458541 1.87860647 -0.91348825 0.91348825 0 0 Z " fill="#474648" transform="translate(206,309)"/>
<path d="M0 0 C0 0.66 0 1.32 0 2 C-1.68125012 3.19542478 -3.42248083 4.30712843 -5.1875 5.375 C-9.01904547 7.7036769 -12.54798132 10.1348876 -16 13 C-16.66 12.67 -17.32 12.34 -18 12 C-17.67 11.34 -17.34 10.68 -17 10 C-17.66 9.67 -18.32 9.34 -19 9 C-5.46311475 0 -5.46311475 0 0 0 Z " fill="#626161" transform="translate(254,276)"/>
<path d="M0 0 C3.67758005 3.28355362 5.81389118 6.62778237 8 11 C7.67 11.66 7.34 12.32 7 13 C6.34 12.34 5.68 11.68 5 11 C5 12.98 5 14.96 5 17 C2.32098068 14.68118495 1.33795597 12.68185532 0.3125 9.3125 C0.06113281 8.50425781 -0.19023437 7.69601562 -0.44921875 6.86328125 C-0.63097656 6.24839844 -0.81273437 5.63351562 -1 5 C-0.34 5 0.32 5 1 5 C0.67 3.35 0.34 1.7 0 0 Z " fill="#555456" transform="translate(238,328)"/>
<path d="M0 0 C-0.33 0.66 -0.66 1.32 -1 2 C-3.5625 2.625 -3.5625 2.625 -6 3 C-5.01 3.66 -4.02 4.32 -3 5 C-4.76641683 5.6987693 -6.53832664 6.38366583 -8.3125 7.0625 C-9.79169922 7.63677734 -9.79169922 7.63677734 -11.30078125 8.22265625 C-14 9 -14 9 -17 8 C-17 7.34 -17 6.68 -17 6 C-11.92339707 2.4617616 -6.31044551 -0.57367686 0 0 Z " fill="#575158" transform="translate(226,39)"/>
<path d="M0 0 C1.36125 0.12375 1.36125 0.12375 2.75 0.25 C1.71134782 3.59676814 0.70387047 4.27532602 -2.4375 6 C-6.07422724 7.41343391 -9.35320937 7.48857902 -13.25 7.25 C-12.92 6.59 -12.59 5.93 -12.25 5.25 C-11.486875 5.12625 -10.72375 5.0025 -9.9375 4.875 C-7.10548549 4.47834345 -7.10548549 4.47834345 -5.3125 2.1875 C-3.25 0.25 -3.25 0.25 0 0 Z " fill="#292527" transform="translate(232.25,35.75)"/>
<path d="M0 0 C-1.98 0.99 -3.96 1.98 -6 3 C-4.68 3.99 -3.36 4.98 -2 6 C-3.43344 6.53190541 -4.87195367 7.05015258 -6.3125 7.5625 C-7.51326172 7.99755859 -7.51326172 7.99755859 -8.73828125 8.44140625 C-11 9 -11 9 -14 8 C-13.34 8 -12.68 8 -12 8 C-12 6.68 -12 5.36 -12 4 C-11 2 -11 2 -9.00390625 1.11328125 C-7.79541016 0.71689453 -7.79541016 0.71689453 -6.5625 0.3125 C-5.35787109 -0.09548828 -5.35787109 -0.09548828 -4.12890625 -0.51171875 C-2 -1 -2 -1 0 0 Z " fill="#615F60" transform="translate(245,32)"/>
<path d="M0 0 C0 1.32 0 2.64 0 4 C0.99 4.33 1.98 4.66 3 5 C-0.67410785 6.17571451 -4.16929183 6.07366746 -8 6 C-7.01 5.67 -6.02 5.34 -5 5 C-5 4.01 -5 3.02 -5 2 C-6.98 2 -8.96 2 -11 2 C-7.75267347 -1.24732653 -4.25451414 -1.41817138 0 0 Z " fill="#4D4A4C" transform="translate(273,25)"/>
<path d="M0 0 C1.65 0.33 3.3 0.66 5 1 C4.60196439 3.88575819 4.20990931 4.82189513 1.9375 6.75 C1.298125 7.1625 0.65875 7.575 0 8 C-1.125 6.25 -1.125 6.25 -2 4 C-1.125 1.75 -1.125 1.75 0 0 Z " fill="#2D2A2D" transform="translate(209,306)"/>
<path d="M0 0 C2 1 2 1 2 1 Z M-2 1 C-1.34 1.33 -0.68 1.66 0 2 C-3.3 4.97 -6.6 7.94 -10 11 C-10.99 10.67 -11.98 10.34 -13 10 C-12.34 10 -11.68 10 -11 10 C-10.67 9.01 -10.34 8.02 -10 7 C-9.34 7 -8.68 7 -8 7 C-7.67 6.01 -7.34 5.02 -7 4 C-6.34 4 -5.68 4 -5 4 C-5 3.34 -5 2.68 -5 2 C-4.01 1.67 -3.02 1.34 -2 1 Z " fill="#4A4849" transform="translate(223,295)"/>
<path d="M0 0 C0 0.33 0 0.66 0 1 C-7.09434233 1.09733092 -13.98194143 1.10087193 -21 0 C-21 -0.33 -21 -0.66 -21 -1 C-18.43802188 -1.22278071 -15.87652444 -1.42862563 -13.3125 -1.625 C-12.59126953 -1.68945312 -11.87003906 -1.75390625 -11.12695312 -1.8203125 C-6.87409746 -2.13102342 -3.81256429 -1.97020088 0 0 Z " fill="#626162" transform="translate(181,63)"/>
<path d="M0 0 C0.99 0.33 1.98 0.66 3 1 C2 4 2 4 -0.9375 5.6875 C-4 7 -4 7 -6 7 C-6 6.34 -6 5.68 -6 5 C-6.66 4.67 -7.32 4.34 -8 4 C-6.02 3.67 -4.04 3.34 -2 3 C-2 2.34 -2 1.68 -2 1 C-1.34 0.67 -0.68 0.34 0 0 Z " fill="#777576" transform="translate(279,49)"/>
<path d="M0 0 C1.32 0.33 2.64 0.66 4 1 C4.33 3.31 4.66 5.62 5 8 C1.125 6.125 1.125 6.125 0 5 C-0.04063832 3.33382885 -0.042721 1.66611905 0 0 Z " fill="#29262A" transform="translate(234,325)"/>
<path d="M0 0 C2.31 0 4.62 0 7 0 C7 0.33 7 0.66 7 1 C9.64 1.33 12.28 1.66 15 2 C15 2.33 15 2.66 15 3 C12.87506859 3.02693575 10.75004088 3.04636628 8.625 3.0625 C7.44164062 3.07410156 6.25828125 3.08570313 5.0390625 3.09765625 C2 3 2 3 0 2 C0 1.34 0 0.68 0 0 Z " fill="#575154" transform="translate(238,60)"/>
<path d="M0 0 C0.66 0.33 1.32 0.66 2 1 C1.34 1.66 0.68 2.32 0 3 C0.33 3.66 0.66 4.32 1 5 C-0.32 5.99 -1.64 6.98 -3 8 C-3.66 7.67 -4.32 7.34 -5 7 C-4.67 6.34 -4.34 5.68 -4 5 C-4.66 4.67 -5.32 4.34 -6 4 C-4.02 2.68 -2.04 1.36 0 0 Z " fill="#7F7B7B" transform="translate(241,281)"/>
<path d="M0 0 C0.33 0 0.66 0 1 0 C1.33 4.29 1.66 8.58 2 13 C1.01 13.66 0.02 14.32 -1 15 C-1.09038099 9.84828377 -0.84681133 5.08086796 0 0 Z " fill="#6F6D6D" transform="translate(385,137)"/>
<path d="M0 0 C0.66 0.99 1.32 1.98 2 3 C0.37660195 4.70884005 -1.29319053 6.37446717 -3 8 C-3.66 8 -4.32 8 -5 8 C-3.62845496 5.04590299 -2.01136276 2.55991624 0 0 Z " fill="#575455" transform="translate(273,510)"/>
<path d="M0 0 C0.66 1.32 1.32 2.64 2 4 C-0.31 5.65 -2.62 7.3 -5 9 C-3.50163895 5.88801935 -1.80066242 2.9465385 0 0 Z " fill="#524F4F" transform="translate(188,330)"/>
<path d="M0 0 C-0.33 0.99 -0.66 1.98 -1 3 C-2.98 3 -4.96 3 -7 3 C-6.67 2.01 -6.34 1.02 -6 0 C-3 -1 -3 -1 0 0 Z " fill="#060205" transform="translate(269,27)"/>
<path d="M0 0 C-0.66 1.65 -1.32 3.3 -2 5 C-2.99 4.67 -3.98 4.34 -5 4 C-5 3.01 -5 2.02 -5 1 C-3 0 -3 0 0 0 Z " fill="#302D2D" transform="translate(237,286)"/>
</svg>
